<svg id="Layer_1" xmlns="http://www.w3.org/2000/svg" viewBox="0 0 2500 2500"><style>.st0{fill-rule:evenodd;clip-rule:evenodd;fill:#fff}</style><path class="st0" d="M2030.9 1945v-302.6H1906V1945h124.9zm-661.2-125.6V1647h-121v131.8c0 38.3-1.5 49-3.8 59-8.4 27.6-37.5 39.8-67.4 39.8-41.4 0-60.5-16.1-68.2-41.4-2.3-8.4-3.1-17.6-3.8-26.8-.8-10 0-20.7 0-32.2V1647H982.9v173.1c0 39.1 13 68.2 34.5 88.1 36.8 36 98.8 46.7 156.3 46.7 69.7 0 123.3-10 161.6-47.5 19.9-19.1 34.4-44.4 34.4-88zm-594.4-21.5c-6.1-1.1-12.2-1.6-18.4-1.5H619c-6.9 0-14.6.8-18.4 1.5 2.3-2.3 6.9-6.9 11.5-13l62-102.7c8.4-13.8 12.3-23 13.8-26.8 1.5 3.8 5.4 13 13.8 27.6l63.6 103.4c3.1 4.6 7.7 9.2 10 11.5zm231.3 147.1l-275.8-413.7H576.1l40.6 48.3c.8.8 2.3 1.5 3.8 2.3-1.5.8-3.1 1.5-3.8 2.3L376.1 1945h139.4l37.5-62.1c1.5-3.1 2.3-6.1 2.3-7.7 1.5 0 5.4 1.5 9.2 1.5h249c3.8 0 6.9-.8 8.4-1.5-.1 2.2.4 4.3 1.5 6.1l39.1 63.6 144.1.1zm865.7-155.5c0-33.7-13.8-72.8-56.7-127.2l-103.4-131h-144l82 91.9c13.8 15.3 31.4 29.1 31.4 29.1-19.9-11.5-45.2-16.1-65.1-16.1-47.5 0-95.8 10-138.7 33.7-46 25.3-76.6 67.4-76.6 123.3 0 42.9 19.2 75.8 43.7 101.1 55.2 55.1 155.5 60.5 192.3 60.5 54.4 0 139.4-12.3 187.7-55.9 28.3-25.9 47.4-61.9 47.4-109.4zm-119.5 3.8c0 31.4-20.7 55.1-46.7 68.2-21.5 11.5-46.7 14.6-68.9 14.6-22.2 0-48.3-4.6-69.7-15.3-26-13-46-38.3-46-65.9 0-32.9 25.3-59 55.2-72 18.4-8.4 40.6-11.5 58.2-11.5 16.9 0 41.4 2.3 60.5 10 34.4 14.4 57.4 42 57.4 71.9zM1991.2 545c-89.7-.1-176.8 30.1-247.1 85.8-70.3-55.7-157.4-86-247.1-85.8-89.7-.1-176.8 30.1-247.1 85.8-70.3-55.7-157.4-86-247.1-85.8-89.7-.1-176.8 30.1-247.1 85.8-70.3-55.7-157.4-86-247.1-85.8-220.1 0-398.5 178.4-398.5 398.5S288.5 1342 508.6 1342c89.7.1 176.8-30.1 247.1-85.8 70.3 55.7 157.4 86 247.1 85.8 89.7.2 176.8-30.1 247.1-85.8 70.3 55.7 157.4 86 247.1 85.8 89.7.1 176.8-30.1 247.1-85.8 70.3 55.7 157.4 86 247.1 85.8 220.1 0 398.5-178.4 398.5-398.5S2211.3 545 1991.2 545zM690.6 1191.1c-50.8 37-114.2 59.6-181.9 59.6-169.8 0-307.2-137.4-307.2-307.2S339 636.3 508.8 636.3c67.7 0 131.1 22.6 181.9 59.7-56 70.3-86.4 157.6-86.2 247.5 0 89.9 30.4 177.1 86.1 247.6zm65.3-65.1c-39.2-52.8-60.2-116.8-60.1-182.5-.2-65.7 20.9-129.8 60.1-182.5 39.2 52.8 60.3 116.8 60.1 182.5.1 65.7-21 129.7-60.1 182.5zm428.9 65.1c-52.8 38.8-116.6 59.7-182.1 59.6-65.4.1-129.1-20.7-181.7-59.6 55.8-70.4 86.2-157.7 86.2-247.5.2-90-30.2-177.3-86.2-247.6 52.6-38.8 116.3-59.7 181.7-59.6 68.2 0 131.1 22 182.1 59.6-56 70.3-86.4 157.6-86.2 247.5 0 89.9 30.4 177.1 86.2 247.6zm65.2-65.1c-39.2-52.8-60.2-116.8-60.1-182.5-.2-65.7 20.9-129.8 60.1-182.5 39.2 52.8 60.3 116.8 60.1 182.5.1 65.7-20.9 129.8-60.1 182.5zm428.9 65.1c-51 37.5-113.9 59.6-182.1 59.6-68.1 0-130.7-22.1-181.7-59.6 55.8-70.4 86.2-157.7 86.2-247.5.2-89.9-30.2-177.2-86.2-247.5 51-37.5 113.5-59.6 181.7-59.6 68.1 0 131.1 22 182.1 59.6-56 70.3-86.4 157.6-86.2 247.5.1 89.8 30.5 177 86.2 247.5zm65.3-65.1c-39.2-52.8-60.2-116.8-60.1-182.5-.2-65.7 20.9-129.8 60.1-182.5 39.2 52.8 60.3 116.8 60.1 182.5.1 65.7-21 129.7-60.1 182.5zm247 124.7c-67.7 0-131.1-22.6-181.9-59.6 55.8-70.5 86.2-157.7 86.2-247.5.2-89.9-30.2-177.2-86.2-247.5 50.8-37 114.2-59.7 181.9-59.7 169.8 0 307.2 137.4 307.2 307.2 0 169.7-137.4 307.1-307.2 307.1z"/></svg>