<svg enable-background="new 0 0 803.1 222.5" viewBox="0 0 803.1 222.5" xmlns="http://www.w3.org/2000/svg" xmlns:xlink="http://www.w3.org/1999/xlink"><defs><clipPath id="a"><use xlink:href="#q"/></clipPath><clipPath id="b"><use xlink:href="#r"/></clipPath><clipPath id="c"><use xlink:href="#s"/></clipPath><clipPath id="d"><use xlink:href="#t"/></clipPath><clipPath id="e"><use xlink:href="#u"/></clipPath><clipPath id="f"><use xlink:href="#v"/></clipPath><clipPath id="g"><use xlink:href="#w"/></clipPath><clipPath id="h"><use xlink:href="#x"/></clipPath><clipPath id="i"><use xlink:href="#y"/></clipPath><clipPath id="j"><use xlink:href="#z"/></clipPath><clipPath id="k"><use xlink:href="#A"/></clipPath><clipPath id="l"><use xlink:href="#B"/></clipPath><clipPath id="m"><use xlink:href="#C"/></clipPath><clipPath id="n"><use xlink:href="#D"/></clipPath><clipPath id="o"><use xlink:href="#E"/></clipPath><clipPath id="p"><use xlink:href="#F"/></clipPath><path id="q" d="m729.3 60.4c-1.4-1.1-5.4-4.1-6.8-4.7-.1.1-4.4 6.4-4.6 6.8.5.5 4.8 4.5 5.4 4.9zm-13.2-8.2c-1-1-6.3-3-7.5-3.1-.9 1.2-2.2 4.9-2.5 6.4 1.2.7 2.1 1 3.4 1.7 1.1.6 1.8 1.2 3 1.6zm-14.8-5.3c-2.5 0-5.3-1-8-.6l-.5 5.4c1.5.8 5.7 1.6 7.2 1.8zm-15.4-.9-7.5 1.1c-.5 1.4 0 2.8.3 4.6 3.2-.5 6 .2 7.5-.9zm-21 8.4c2.1 0 4.8-1.4 7.4-1.8l-1-3.6c-1.6.1-6.4 1.9-7.5 2.8zm-12.3 6.6c1.6-1.3 5-2.8 6-4-.6-1.2-.3-.8-1.1-1.9-1.6 1.1-5.7 3.4-6.3 4.8.3.3.2.3.5.6.7.6-.2 0 .9.5zm-11.5 9.5c.9-.2 2.4-1.8 3.1-2.6.8-.9.6-.7 1.6-1.6 1.3-1.1 1.1-.6.6-1.8-1.3.3-3.3 3.2-4.3 4.5zm86.4 1.1c.5 1.6 1.1 2.1 2 3.3.4.5.6.9 1 1.5l1.1 1.4c.9-.3 7.7-4.9 8.4-5.9-1.8-2.7-3.4-4.4-5.1-6.3-2.2 1.3-5.2 5-7.4 6zm9.2 18.4 10.8-3.9c0-.1.2-.1.3-.2-1.1-3.1-2.3-5-3.6-7.5-2 1.1-7.8 4.3-9.9 4.9zm1.9 9.7c.1 1.2.2 2.3.3 3.5l12.4-1.4-.5-6.6c-.1-.5-.4-1.2-.5-1.8l-11.8 2.7zm13.4 18.5c.6-2.4.5-6.3.6-8.7l-13.8-.4c-.2 2.4-.7 4.5-.9 6.8 2.8 1 10.4 1.6 14.1 2.3zm-18.4 9.7c.1.1.2.1.2.2.1 0 .2.1.2.2l14 5.8c.9-1.5 2.2-5.9 2.6-8.3-4.8-1-11.5-3.5-14.6-4zm-7 11c2.1.3 11.5 9.5 13.7 9.8.7-1.6 1.4-2.2 2.3-3.7.1-.2.3-.5.4-.6l1.6-3c-2.2-1.3-4.9-2.8-7.1-4.1-2.3-1.4-4.6-2.9-7-4.1-.8 1-3.3 4.1-3.9 5.7zm-9.3 7.8c.9 1.8 10 12.2 11 14.5 1.3-.6 4-3.3 5.3-4.6.8-.8.7-.5 1.3-1.4-1.1-1.6-3.3-3.4-4.7-4.8l-7.9-7.6c-1.4 1.4-4 2.9-5 3.9zm-3.1 23.9c2.2-.8 6.6-3.3 7.8-4.5l-9.6-16.4-6.1 3zm-19.6-15.3c.4 3.1 2.8 18.9 3.7 20.7 2.3-.4 6.9-1.5 8.6-2.3-2.2-6.5-3.6-13.3-5.9-19.4z"/><path id="r" d="m117.6 162.5h-85c-4.7 0-10.1.4-14.6 2.1-2.5.9-4.5 2.3-6.2 4.3h40.9l-26.7 43.5h3c4.8 0 11.1-.4 15.6-2.3 3.7-1.6 6.4-4.5 8.4-7.9l20.4-33.3h20.2c6.9-.1 18.7-.7 24-6.4m109.4 6.3h-80.7l-9.7 15.5h79.4c-.1.1-.2.1-.3.2-2.3 1.5-5 2.6-7.6 3.4-3.3 1-6.7 1.7-10.2 2.1-4.1.5-8.3.7-12.4.7h-52.6l-9.9 15.7h79.5c-.7.5-1.5 1-2.3 1.4-3.2 1.7-6.6 2.8-10.1 3.5-4.1.8-8.4 1.1-12.6 1.1h-59.3c-2.9 0-5.9-.2-8.8-.9-1.8-.4-3.8-1.1-5.2-2.2-.7-.6-1.2-1.2-1.2-2.1 0-.2 0-.4.1-.6.2-.6.5-1.1.8-1.6l19.4-32.1c2.2-3.5 7-5.7 10.7-7.1 5.8-2.1 11.8-3.1 17.9-3.1h59.5c1.4 0 2.7 0 4.1.1 1.1 0 2.2.2 3.3.3.9.1 1.9.3 2.8.6.8.2 1.6.5 2.4.8.5.2 1.1.4 1.6.7.3.2.6.4.9.8.2.3.4.6.6.9v.1.1c.1.2.1.5.1.6 0 .2 0 .5-.1.7.1 0 0 .2-.1.4zm110.2-6.3c-9 .2-21.6 1.9-26.4 9.8l-14 22.7-2.4-2.4c-2.2-2.2-4.3-4.5-6.4-6.8l-17.4-18.4c-4.1-4.5-14.3-5-19.8-5h-4l-30.6 49.6h20.5l20.1-33 9.1 9.4 17 18.6c4.2 4.5 14.2 5 19.9 5h3.8zm119.4 0h-85c-4.7 0-10.1.4-14.6 2.1-2.5.9-4.5 2.3-6.2 4.3h40.9l-26.7 43.4h3c4.8 0 11.1-.4 15.6-2.3 3.7-1.6 6.4-4.5 8.4-7.9l20.4-33.3h20.2c6.9 0 18.7-.6 24-6.3zm94.3 0h.7c2.5 0 5 .1 7.4.5 1.7.3 3.6.6 5.2 1.3.9.4 2 .9 2.7 1.7.4.4.6.9.6 1.4 0 .2 0 .5-.1.7-.2.7-.5 1.4-.9 2l-19.6 32c-2.3 3.8-6.6 6.1-10.7 7.5-5.2 1.7-10.6 2.5-16.1 2.7l13.2-21.6h-60.3l-13.2 21.6h-1.6c-3.8 0-8.2-.4-11.7-1.9-1.3-.6-3.3-1.6-3.3-3.3 0-.1 0-.4 0-.5.2-.6.5-1.2.8-1.7l19.8-32.3c1.9-3.4 6.9-5.6 10.3-6.9 5.2-1.9 10.6-2.9 16.1-3.1l-13.4 22h60.6zm136 6.3c.1-.2.2-.5.3-.7 0-.3.1-.6.2-.9 0-.6-.2-1-.6-1.4-.8-.8-2-1.3-3-1.7-1.8-.6-3.7-1-5.6-1.2-2.6-.3-5.3-.4-7.9-.4h-58.3c-6.3 0-12.6.9-18.6 3-4.5 1.6-8.7 4.2-11.2 8.4l-5.6 9c-.3.6-.5 1.2-.7 1.8 0 .3-.1.6-.1.9 0 .4.1.8.4 1.2.4.6 1 1 1.6 1.3 1 .6 2.2 1 3.3 1.3 1.5.4 3.1.7 4.7.9 1.9.2 3.8.3 5.7.3h62l-9.6 15.7h-81.4c0 .2-.1.5-.1.7 0 .6.3 1.1.8 1.5.9.9 2.1 1.5 3.3 2 1.8.7 3.7 1.1 5.6 1.4 2.4.3 4.8.5 7.2.5h56.7c4.6 0 9.2-.3 13.6-1.2 3.7-.7 7.3-1.9 10.6-3.7 2.5-1.3 4.8-3.1 6.3-5.5l6.7-10.8c.2-.4.5-.9.5-1.3l.1-.5.1-.1c0-.1 0-.1 0-.2 0-1.6-2.6-2.7-3.8-3.1-4.1-1.5-9.1-1.8-13.5-1.8h-60.2l9.7-15.5h80.8z"/><path id="s" d="m47.5 177.4-21.4 34.9h3c4.8 0 11.1-.4 15.6-2.3 3.7-1.6 6.4-4.5 8.4-7.9l14.3-23.4c-6.8-.6-13.4-1-19.9-1.3m69.6 5.6-13.2 21.8c-.3.5-.6 1.1-.8 1.6 0 .2-.1.4-.1.6 0 .9.6 1.6 1.2 2.1 1.4 1.1 3.4 1.8 5.2 2.2 2.8.7 5.9.9 8.8.9h59.3c4.2 0 8.4-.3 12.6-1.1 3.5-.7 7-1.8 10.1-3.5.8-.4 1.5-.9 2.3-1.4h-79.5l9.9-15.7h52.6c4.1 0 8.3-.2 12.4-.7 3.4-.4 6.9-1.1 10.2-2.1 1.8-.6 3.6-1.2 5.3-2.1-6.4-.7-15.1-1.2-24.9-1.5h-51.8l.6-1c-7.3.1-14.2 0-20.2-.1zm114.1 4.8-15 24.4h20.5l15.8-25.8c-8.9.6-16.2 1.1-21.3 1.4zm73.4-5.3-7.7 12.5-2.4-2.4c-2.2-2.2-4.3-4.5-6.4-6.8l-2-2.1c-8.2.6-15.9 1.2-23 1.7l3 3 17 18.6c4.2 4.5 14.2 5 19.9 5h3.8l19.1-31c-7.2.5-14.3 1-21.3 1.5zm80.7-3.2-20.2 33h3c4.8 0 11.1-.4 15.6-2.3 3.7-1.6 6.4-4.5 8.4-7.9l13.5-22c-6.1-.5-12.9-.7-20.3-.8zm70.2 6.9-11.4 18.6c-.3.6-.6 1.2-.8 1.7v.5c0 1.7 2 2.7 3.3 3.3 3.5 1.5 7.9 1.9 11.7 1.9h1.6l13.2-21.6h60.3l-13.2 21.6c5.5-.2 10.9-1 16.1-2.7 4.1-1.4 8.3-3.6 10.7-7.5l8.5-13.9c-16.8 1.4-66 .3-100-1.9zm121.1 1.3c.3.2.6.5.9.6 1 .6 2.2 1 3.3 1.3 1.5.4 3.1.7 4.7.9 1.9.2 3.8.3 5.7.3h62l-9.6 15.7h-81.4c0 .2-.1.5-.1.7 0 .6.3 1.1.8 1.5.9.9 2.1 1.5 3.3 2 1.8.7 3.7 1.1 5.6 1.4 2.4.3 4.8.5 7.2.5h57c4.6 0 9.2-.3 13.6-1.2 3.7-.7 7.3-1.9 10.6-3.7 2.5-1.3 4.8-3.1 6.3-5.5l6.7-10.8c.2-.3.3-.6.5-1-32.2.1-72.3-2.3-97.1-2.7z"/><path id="t" d="m784.5 64.2-6.2 2.7 7.3 17.2c1.8-.8 3.7-1.6 5.5-2.4.7-6.9-1.9-12.6-6.6-17.5"/><path id="u" d="m747.9 29 2.3 2.2 16.6 15.4 1.4 1.2 6.7-7.1c-4-9.1-10.2-15.8-19.9-18.6z"/><path id="v" d="m708.4 10.9-1.5 6.6 18.2 4.5c.4-2 .9-3.9 1.3-5.9-5.1-4.7-11.2-6-18-5.2"/><path id="w" d="m46 103.5-.1.1c-.3.5-.6 1-.8 1.5v.7.2c.3 1 3.1 1.8 3.9 2 4.2 1.1 9.5 1.2 13.9 1.2h56.6l-22 36h-57.7l12.8-20.7h-19.5l-16.2 26.1h74.6c5.9 0 12-.7 17.7-2.6 3.9-1.3 7.8-3.5 10.1-7.1l18.7-30.5c.4-.6.6-1.2.8-1.9.1-.2.1-.4.1-.6 0-.5-.2-.9-.5-1.3-.7-.7-1.6-1.2-2.5-1.6-1.5-.6-3.3-1-5-1.2-2.3-.3-4.7-.4-7.1-.4h-77.8zm201.9 5.8h-76.9l-9.4 15h75.5c-2.2 1.4-4.7 2.4-7.2 3.2-3.2 1-6.4 1.6-9.7 2-3.9.5-7.9.6-11.8.6h-50.2l-9.6 15.2h75.6c-.6.4-1.2.8-1.8 1.1-3 1.6-6.3 2.7-9.6 3.3-3.9.7-8 1-12 1h-56.6c-2.8 0-5.6-.2-8.3-.8-1.7-.4-3.6-1-4.9-2.1-.6-.5-1.1-1.1-1.1-1.9 0-.2 0-.4.1-.6.2-.5.5-1.1.7-1.5l18.5-30.6c2.1-3.3 6.6-5.4 10.2-6.7 5.5-2 11.2-2.9 17.1-2.9h56.7c1.3 0 2.6 0 3.9.1 1 0 2.1.1 3.1.3.9.1 1.8.3 2.7.6.8.2 1.6.5 2.3.7.5.2 1 .4 1.5.7.3.2.6.4.8.7.2.2.4.5.5.8v.1.1c.1.1.1.4.1.6s0 .4-.1.6c0 .1 0 .2-.1.4zm96.2 25.4c-5.1.2-10.2 1.1-15.1 2.7-2.4.8-7.4 2.6-8.7 5l-.1.2-2.1 2.7h-57.9l22.3-36h57.8l-6 9.8c5-.2 10-1.1 14.8-2.8h.1.1c3.1-.9 8.1-2.6 9.8-5.6v-.1-.1c.3-.5.6-1 .7-1.6 0-.3.1-.6.1-.9 0-.8-.5-1.3-1.1-1.8-1.4-1.1-3.5-1.6-5.2-2-2.9-.6-6.1-.8-9.1-.8h-56.6c-5.9 0-11.7.9-17.2 2.9-3.3 1.2-8 3.3-9.8 6.5l-18.9 30.8c-.3.5-.6 1.1-.8 1.6v.5c0 1.5 1.9 2.5 3.1 3 3.3 1.5 7.5 1.8 11.1 1.8h56.7c5.9 0 11.9-.7 17.6-2.7 3.9-1.4 7.9-3.5 10.1-7.1v-.1zm24.3 16.1h-1.4c-3.6 0-7.8-.3-11.1-1.8-1.2-.5-3.1-1.5-3.1-3 0-.1 0-.3 0-.5.2-.5.5-1.1.8-1.6l24.6-40.3h.8c3.8 0 8.5.3 12 1.7 1.2.5 3 1.3 3 2.8 0 .2 0 .4-.1.6v.1c-.1.6-.4 1.2-.8 1.8zm148.8-47.3c-9.1 0-19.1 1.1-27.3 5.3l-39.5 20-15.9-20.7c-3.4-4.2-14.7-4.6-19.6-4.6h-3.4l-29 47.2c5.1-.2 10.2-.9 15.1-2.6 3.9-1.4 7.9-3.5 10.1-7.1l15.1-24.8 17.2 24.9 51.2-26.8-18 29.6c-.4.6-.7 1.2-.8 1.9-.1.2-.1.4-.1.6 0 1.5 2 2.3 3.1 2.8 3.6 1.3 8.1 1.6 11.9 1.6h.8zm88 5.8h-57.7l-9.4 15h58zm23.2-5.8-29 47.3h-19.6l12.6-20.7h-57.8l-5.8 9.5c-1.2 1.9-2.7 3.8-4.5 5.2-2 1.5-4.5 2.5-6.8 3.2h-.1c-4.7 1.6-9.7 2.5-14.7 2.7l22.6-36.8c1.1-1.8 2.6-3.3 4.3-4.5 2-1.4 4.2-2.5 6.5-3.2 2.7-.9 5.5-1.5 8.3-2 2.9-.5 5.9-.7 8.8-.7zm60.1 41.8h-51.6l21.6-34.8c.3-.5.6-1.1.8-1.8.1-.2.1-.4.1-.6 0-1.5-1.8-2.4-3-2.8-3.5-1.4-8.3-1.7-12-1.7h-.8l-24.6 40.4c-.4.6-.7 1.2-.8 1.9l-.1.4v.3c0 1.5 2 2.3 3.1 2.8 3.6 1.4 8.3 1.6 12.1 1.6h31.5c4 0 8-.3 12-1 3.4-.6 6.7-1.7 9.9-3.3.5-.6 1.2-1 1.8-1.4z"/><path id="x" d="m110.5 124.1-12.9 21.2h-57.8l12.8-20.7h-19.5l-16.2 26.1h74.6c5.9 0 12-.7 17.7-2.6 3.9-1.3 7.8-3.5 10.1-7.1l9.3-15.1c-6.2-.6-12.2-1.2-18.1-1.8"/><path id="y" d="m140.6 127.4-9.9 16.4c-.3.5-.5 1-.7 1.5 0 .2-.1.4-.1.6 0 .8.5 1.4 1.1 1.9 1.3 1.1 3.3 1.7 4.9 2.1 2.7.6 5.6.8 8.3.8h56.6c4 0 8-.3 12-1 3.4-.6 6.6-1.7 9.6-3.3.6-.3 1.2-.7 1.8-1.1h-75.6l9.6-15.2h4.8c-7.5-.9-14.9-1.8-22.4-2.7"/><path id="z" d="m344.1 134.7c-5.1.2-10.2 1.1-15.1 2.7-2.4.8-7.4 2.6-8.7 5l-.1.2-2.1 2.7h-57.9l7.9-12.7c-7.3.6-14.1 1.2-20 1.7l-5.8 9.5c-.3.5-.6 1.1-.8 1.6v.5c0 1.5 1.9 2.5 3.1 3 3.3 1.5 7.5 1.8 11.1 1.8h56.7c5.9 0 11.9-.7 17.6-2.7 3.9-1.4 7.9-3.5 10.1-7.1v-.1z"/><path id="A" d="m368.4 150.8 12.1-19.7c-6.1-.5-12-1.2-17.9-2.1l-9.1 14.9c-.3.5-.6 1.1-.8 1.6v.5c0 1.5 1.9 2.5 3.1 3 3.3 1.5 7.5 1.8 11.1 1.8z"/><path id="B" d="m482.2 129.3-8.9 14.6c-.4.6-.7 1.2-.8 1.9-.1.2-.1.4-.1.6 0 1.5 2 2.3 3.1 2.8 3.6 1.3 8.1 1.6 11.9 1.6h.8l14.1-23c-6.7.5-13.4 1-20.1 1.5"/><path id="C" d="m433.8 132 6.3 9.1 19.8-10.4c-8.8.6-17.5 1-26.1 1.3"/><path id="D" d="m394.1 131.9-11.5 18.8c5.1-.2 10.2-.9 15.1-2.6 3.9-1.4 7.9-3.5 10.1-7.1l5.3-8.8c-6.5.1-12.8 0-19-.3"/><path id="E" d="m517.4 126.7-14.7 23.9c5-.3 9.9-1.1 14.7-2.7h.1c2.3-.7 4.8-1.7 6.8-3.2 1.8-1.4 3.3-3.2 4.5-5.2l5.8-9.5h57.8l-12.6 20.7h19.6l16-26.1c-6.3-.4-12.7-.6-19.2-.7l-.2.4h-35c-14.5.6-29 1.4-43.6 2.4"/><path id="F" d="m688.5 145.3h-51.6l10.7-17.2c-5.8-.9-11.7-1.7-17.7-2.3l-11 18c-.4.6-.7 1.2-.8 1.9l-.1.4v.3c0 1.5 2 2.3 3.1 2.8 3.6 1.4 8.3 1.6 12.1 1.6h31.5c4 0 8-.3 12-1 3.4-.6 6.7-1.7 9.9-3.3.6-.4 1.3-.8 1.9-1.2"/></defs><g fill="#50e887"><path d="m722.3 78.3-28 23.9c-4.3 3.7-3.9 0-8.5 3.2-2.9 2-2.8 4-3.4 5.9-.3 1-1.4 1.3-2.2 2.1-2.2 2.2-2.5 5.4-.9 7.8 2.2 3.2 6.9 3.9 9.9.1 1.9-2.3 1.6-.7 4.3-1.7 2.1-.8 4.4-3.4 4.9-6.2.7-4-1-3 .3-4.8 7.6-10 16.4-20.3 23.6-30.3m-29.1 35.6c-2.7 3.6-8-.2-5.4-3.9 2.4-3.4 7.9.5 5.4 3.9z"/><path d="m668.5 38.4-16.2 5.3c-.2.1-.4.2-.7.4-3.3 1.8-6.8 3.4-9.9 5.6-.7.5-1.5.9-2.2 1.4l-2.8 2.2c-.3.3-.7.5-1.1.8-.6.4-1.1.9-1.6 1.4-.3.3-.6.5-.9.8l-.8.7s-.1 0-.1.1l-8 8.3v.1l-3.9 4.9-1.9-8.1.7-1.1c.1-.1.1-.2.2-.3l.1-.1 1.5-1.9.1-.1c1.3-1.4 2.3-3 3.5-4.5 2.6-3.2 5.7-5.9 8.8-8.5 14.2-12.3 31.9-19.3 50.5-21.2 9.9-1 19.2.1 28.8 2.2 8.3 1.8 15.7 5.1 23.2 9 2.8 1.5 5.5 3.2 8.1 5l8.9-9.3 14.8 13.1-8.4 9.7.2.2.1.1 5.7 6.9c8 9.7 15.8 28.7 17.5 41.2.4 2.8.8 5.5 1 8.3.4 5 .4 10-.1 15.1l-.8 6.7c-1.1 6.9-3 13.5-5.3 20v.1l-1.8 4.2c-.8 2-1.7 3.8-2.7 5.8l-.1.1-3.5 6.2c-1.4 2.6-3.4 4.7-5 7.2l-.1.1-3.4 4.3c-.1.2-.2.3-.3.5-.4.5-.8.9-1.2 1.4l-4.2 4.2c-.2.2-.3.3-.5.5l-.6.6c-17.5 17.2-43.1 27.3-67.5 27.6-4.2.1-8.4-.1-12.5-.6l-1.6-.2 19.1-32.1c12.5.1 25.2-3.1 35.8-9.9 4-2.6 8-5.4 11.4-8.6l3.4-3.5c8.8-9.2 14.7-21.4 17.4-33.8 3.1-14.5 1.7-29.7-4-43.4-2.7-6.4-5.9-11.7-9.9-17.4-1.7-2.4-3.9-4.7-6-6.7-1.1-1-2.1-2.2-3.2-3.2-4.9-3.9-9.5-7.7-15.1-10.5-16.5-8.3-34.9-11.2-52.9-7.3"/><path d="m668.1 36.9-16.4 5.4c-.3.1-.5.3-.8.4-3.4 1.8-6.9 3.5-10.1 5.6-.7.5-1.5.9-2.2 1.4l-2.9 2.3c-.3.3-.7.5-1 .8-.6.5-1.1.9-1.7 1.4-.3.3-.6.5-.9.8l-.8.7s-.1.1-.1.1l-8.1 8.4s-.1.1-.1.1l-1.9 2.5-1-4.4.4-.5c.1-.1.1-.2.2-.2l1.4-1.8c1.3-1.5 2.3-3.1 3.5-4.6 2.5-3.1 5.6-5.8 8.6-8.3 14-12.1 31.3-19 49.7-20.8 9.8-1 18.8.1 28.4 2.1 8.3 1.8 15.4 4.9 22.8 8.9 3.2 1.7 6.1 3.6 9 5.7l8.8-9.2 12.6 11.1-8.3 9.6c.4.4.7.8 1.1 1.1l5.6 6.9c7.8 9.5 15.5 28.3 17.1 40.4.4 2.7.8 5.5 1 8.2.4 5 .4 9.8-.1 14.8l-.8 6.6c-1.1 6.9-3 13.2-5.2 19.8v.1l-1.8 4.2c-.8 1.9-1.7 3.8-2.6 5.6v.1l-3.5 6.2c-1.4 2.5-3.4 4.7-4.9 7.1v.1l-3.3 4.3c-.1.1-.2.3-.3.4-.4.5-.7.8-1.1 1.2l-4.2 4.2c-.2.2-.3.3-.5.5l-.5.6c-17.2 17-42.4 26.8-66.5 27.2-4 .1-7.9-.1-11.9-.5l17.5-29.3c12.6 0 25.4-3.3 36-10.1 4.1-2.6 8.2-5.5 11.7-8.8l3.4-3.5c9-9.4 15.1-21.9 17.8-34.5 3.2-14.9 1.8-30.2-4.1-44.3-2.8-6.8-5.9-11.8-10.1-17.7-1.7-2.4-4.1-5-6.2-7-1.2-1.1-2.1-2.3-3.3-3.2-5.1-4.1-9.5-7.7-15.4-10.7-16.9-8.5-35.6-11.5-54-7.5"/><path d="m676.8 212.2c3.2.3 6.4.4 9.6.3 23.7-.3 48.6-10.1 65.4-26.7l.5-.5c.2-.2.3-.4.5-.5l4.2-4.2c.4-.4.5-.6 1-1.1.1-.1.2-.3.3-.4l3.3-4.3c1.8-2.9 3.6-4.6 4.9-7.1l3.6-6.3c.9-1.9 1.8-3.7 2.5-5.5l1.8-4.1c2.3-6.6 4-12.6 5.1-19.6l.8-6.6c.4-4.8.5-9.3.1-14.5-.2-2.8-.6-5.4-1-8.1-1.6-11.8-9.2-30.5-16.8-39.7l-5.6-6.8c-6.8-7.1-13.9-13.4-22.7-18.1-7.1-3.8-13.9-7-22.4-8.7-9.1-1.9-17.9-3.1-27.9-2.1-18.5 1.8-35.4 8.8-48.8 20.4-2.7 2.3-6.1 5.2-8.4 8.1-1.4 1.7-1.9 2.8-3.6 4.6l-1.4 1.7c0 .1-.1.1-.1.2l.2.8c0-.1.1-.1.2-.2l8.2-8.5c.1-.1.1-.1.2-.2l.8-.7c.4-.4.5-.5.9-.8.5-.5 1-.9 1.7-1.4.3-.2.6-.4 1-.8l2.9-2.3c.9-.6 1.6-1 2.2-1.4 3.1-2.2 6.9-4 10.2-5.7.4-.2.5-.3 1-.5l16.5-5.4c18.7-4.1 37.9-1.1 54.8 7.5 6.3 3.2 10.1 6.4 15.6 10.8 1.5 1.2 2.1 2.1 3.4 3.3 2.1 1.9 4.8 4.8 6.4 7.2 4.1 5.8 7 10.2 10.2 18 12.9 30.9 2.8 62.9-14 80.4l-3.5 3.5c-3.5 3.4-7.9 6.4-11.9 9.1-10.8 7-23.6 10.3-36.2 10.4z"/><use xlink:href="#q"/><path clip-path="url(#a)" d="m641.1 45.9h111.4v130h-111.4z"/><path d="m122.6 159.8-1.4 2.4c-3.8 6.2-13 9.3-27.5 9.3h-18.8l-19.6 32c-2.5 4.2-5.8 7.2-9.7 8.9s-9.4 2.6-16.7 2.6h-7.7l26.8-43.5h-41.1l1-1.7c2.2-3.7 5.3-6.2 9.2-7.7 4-1.5 9.1-2.2 15.5-2.2h90zm106 11.7c.6-.9 1-1.8 1.2-2.6.1-.5.2-.9.2-1.4 0-.7-.1-1.3-.4-1.8-.2-.5-.5-1-.9-1.6-.4-.5-.9-1-1.6-1.4-.6-.4-1.3-.7-2.1-1s-1.7-.6-2.7-.9-2-.5-3.2-.7c-1.1-.2-2.3-.3-3.6-.4-1.3 0-2.6-.1-4.1-.1h-59.4c-6.5 0-12.8 1.1-18.8 3.3s-10 4.9-12.1 8.2l-19.4 32.2c-.4.8-.8 1.6-1 2.2-.1.5-.2.9-.2 1.4 0 1.6.8 3 2.2 4.2 1.5 1.2 3.6 2.1 6.3 2.8 2.7.6 5.8.9 9.4.9h59.3c4.7 0 9.1-.4 13.1-1.1s7.7-2 10.9-3.8c3.3-1.8 5.7-3.9 7.2-6.4h-80.8l6.5-10.3h51.1c4.6 0 8.8-.2 12.7-.7s7.5-1.2 10.6-2.2c3.2-1 6-2.2 8.3-3.7s4-3.2 5.1-5.1h-80.8l6.3-10.1h80.7zm113.4-11.7-33.9 55h-5.3c-10.9 0-18.2-2-21.8-5.9l-17-18.6-6.7-6.9-19.1 31.3h-26.8l33.9-55h5.5c11 0 18.3 1.9 21.8 5.8l17.4 18.5c2.5 2.7 4.6 5 6.4 6.7l12.2-19.8c4.5-7.5 14.9-11.1 31.4-11.1zm119.5 0-1.4 2.4c-3.8 6.2-13 9.3-27.5 9.3h-18.7l-19.6 32c-2.5 4.2-5.7 7.2-9.7 8.9-3.9 1.7-9.4 2.6-16.7 2.6h-7.7l26.7-43.5h-41.1l1-1.7c2.2-3.7 5.3-6.2 9.2-7.7 4-1.5 9.1-2.2 15.5-2.2h90zm107.3 11.7c.6-.9 1-1.8 1.2-2.8.1-.4.2-.9.2-1.4 0-1.3-.4-2.3-1.3-3.3-.9-.9-2.1-1.7-3.6-2.3-1.6-.6-3.5-1.1-5.8-1.5s-5-.5-7.8-.5h-2.2l-13.4 22h-54.3l13.4-22h-2.8c-6.7 0-13 1.1-19 3.3s-9.9 4.9-11.8 8.1l-19.8 32.3c-.4.8-.8 1.6-1 2.2-.1.4-.2.8-.2 1.4 0 2.4 1.6 4.3 4.9 5.7s7.5 2.1 12.8 2.1h3.1l13.2-21.6h54l-13.3 21.8h2.4c7.1 0 13.6-1 19.3-2.9 5.8-2 9.8-4.8 12.1-8.6zm119.6 0h-80.8l-6.4 10.1h55.4c5.8 0 10.6.6 14.3 2 3.7 1.3 5.6 3.2 5.6 5.6v.6c0 .2-.1.4-.2.6-.1.7-.4 1.4-.9 2.3l-6.7 10.8c-1.6 2.5-4 4.7-7.3 6.5s-7 3.1-11.4 3.9c-4.3.9-9 1.3-14.2 1.3h-56.9c-2.7 0-5.3-.2-7.6-.5-2.4-.4-4.4-.9-6.2-1.6s-3.2-1.6-4.2-2.6-1.6-2.2-1.6-3.4c0-.2 0-.5.1-.7s.1-.4.1-.7c.2-.7.6-1.4 1-2.1h81.5l6.3-10.3h-57.2c-2.2 0-4.2-.1-6-.4-1.8-.2-3.5-.5-5.1-.9-1.5-.4-2.8-.9-3.9-1.6-1.1-.6-1.9-1.3-2.5-2.1s-.9-1.7-.9-2.8c0-.2 0-.4.1-.7.1-.2.1-.5.1-.7.2-.8.6-1.7 1-2.6l5.7-9.1c2.5-4.2 6.7-7.4 12.6-9.5s12.4-3.2 19.5-3.2h58.3c3.1 0 5.8.1 8.2.4s4.5.8 6.2 1.4 3 1.4 4 2.3c.9.9 1.4 2 1.4 3.3 0 .2 0 .4-.1.7-.1.2-.1.5-.1.7 0 1-.5 2-1.2 3z"/><path d="m117.6 162.5h-85c-4.7 0-10.1.4-14.6 2.1-2.5.9-4.5 2.3-6.2 4.3h40.9l-26.7 43.5h3c4.8 0 11.1-.4 15.6-2.3 3.7-1.6 6.4-4.5 8.4-7.9l20.4-33.3h20.2c6.9-.1 18.7-.7 24-6.4m109.4 6.3h-80.7l-9.7 15.5h79.4c-.1.1-.2.1-.3.2-2.3 1.5-5 2.6-7.6 3.4-3.3 1-6.7 1.7-10.2 2.1-4.1.5-8.3.7-12.4.7h-52.6l-9.9 15.7h79.5c-.7.5-1.5 1-2.3 1.4-3.2 1.7-6.6 2.8-10.1 3.5-4.1.8-8.4 1.1-12.6 1.1h-59.3c-2.9 0-5.9-.2-8.8-.9-1.8-.4-3.8-1.1-5.2-2.2-.7-.6-1.2-1.2-1.2-2.1 0-.2 0-.4.1-.6.2-.6.5-1.1.8-1.6l19.4-32.1c2.2-3.5 7-5.7 10.7-7.1 5.8-2.1 11.8-3.1 17.9-3.1h59.5c1.4 0 2.7 0 4.1.1 1.1 0 2.2.2 3.3.3.9.1 1.9.3 2.8.6.8.2 1.6.5 2.4.8.5.2 1.1.4 1.6.7.3.2.6.4.9.8.2.3.4.6.6.9v.1.1c.1.2.1.5.1.6 0 .2 0 .5-.1.7.1 0 0 .2-.1.4zm110.2-6.3c-9 .2-21.6 1.9-26.4 9.8l-14 22.7-2.4-2.4c-2.2-2.2-4.3-4.5-6.4-6.8l-17.4-18.4c-4.1-4.5-14.3-5-19.8-5h-4l-30.6 49.6h20.5l20.1-33 9.1 9.4 17 18.6c4.2 4.5 14.2 5 19.9 5h3.8zm119.4 0h-85c-4.7 0-10.1.4-14.6 2.1-2.5.9-4.5 2.3-6.2 4.3h40.9l-26.7 43.4h3c4.8 0 11.1-.4 15.6-2.3 3.7-1.6 6.4-4.5 8.4-7.9l20.4-33.3h20.2c6.9 0 18.7-.6 24-6.3zm94.3 0h.7c2.5 0 5 .1 7.4.5 1.7.3 3.6.6 5.2 1.3.9.4 2 .9 2.7 1.7.4.4.6.9.6 1.4 0 .2 0 .5-.1.7-.2.7-.5 1.4-.9 2l-19.6 32c-2.3 3.8-6.6 6.1-10.7 7.5-5.2 1.7-10.6 2.5-16.1 2.7l13.2-21.6h-60.3l-13.2 21.6h-1.6c-3.8 0-8.2-.4-11.7-1.9-1.3-.6-3.3-1.6-3.3-3.3 0-.1 0-.4 0-.5.2-.6.5-1.2.8-1.7l19.8-32.3c1.9-3.4 6.9-5.6 10.3-6.9 5.2-1.9 10.6-2.9 16.1-3.1l-13.4 22h60.6zm136 6.3c.1-.2.2-.5.3-.7 0-.3.1-.6.2-.9 0-.6-.2-1-.6-1.4-.8-.8-2-1.3-3-1.7-1.8-.6-3.7-1-5.6-1.2-2.6-.3-5.3-.4-7.9-.4h-58.3c-6.3 0-12.6.9-18.6 3-4.5 1.6-8.7 4.2-11.2 8.4l-5.6 9c-.3.6-.5 1.2-.7 1.8 0 .3-.1.6-.1.9 0 .4.1.8.4 1.2.4.6 1 1 1.6 1.3 1 .6 2.2 1 3.3 1.3 1.5.4 3.1.7 4.7.9 1.9.2 3.8.3 5.7.3h62l-9.6 15.7h-81.4c0 .2-.1.5-.1.7 0 .6.3 1.1.8 1.5.9.9 2.1 1.5 3.3 2 1.8.7 3.7 1.1 5.6 1.4 2.4.3 4.8.5 7.2.5h56.7c4.6 0 9.2-.3 13.6-1.2 3.7-.7 7.3-1.9 10.6-3.7 2.5-1.3 4.8-3.1 6.3-5.5l6.7-10.8c.2-.4.5-.9.5-1.3l.1-.5.1-.1c0-.1 0-.1 0-.2 0-1.6-2.6-2.7-3.8-3.1-4.1-1.5-9.1-1.8-13.5-1.8h-60.2l9.7-15.5h80.8z"/><path d="m74.2 170.2-20 32.6c-2.2 3.7-5.1 6.7-9.1 8.4-4.7 2.1-11 2.4-16.1 2.4h-5.5l26.7-43.5h-41.4l2-2.3c1.8-2.1 4.1-3.7 6.8-4.7 4.7-1.7 10.2-2.1 15.1-2.1h88.2l-2.2 2.4c-5.5 5.9-17.3 6.8-25 6.8zm72.9 0h80.8l.4-.9c.1-.2.2-.5.3-.7.1-.3.1-.7.1-1 0-.4-.1-.9-.2-1.2-.2-.5-.5-.9-.8-1.2-.3-.4-.8-.8-1.2-1.1-.6-.4-1.2-.6-1.9-.9-.8-.3-1.7-.6-2.6-.8-1-.3-2-.5-3-.7-1.1-.2-2.3-.3-3.4-.3-1.4 0-2.7-.1-4.1-.1h-59.5c-6.3 0-12.5 1-18.4 3.2-4.1 1.5-9.1 3.9-11.4 7.7l-19.4 32.1c-.3.6-.6 1.2-.9 1.8v.1.1c-.1.3-.1.6-.1.9 0 1.4.7 2.4 1.8 3.2 1.6 1.3 3.8 2 5.8 2.5 3 .7 6.1.9 9.1.9h59.3c4.3 0 8.6-.3 12.8-1.1 3.7-.7 7.2-1.9 10.5-3.7.8-.4 1.6-.9 2.4-1.5l3.6-2.6h-81.3l8.1-12.9h51.8c4.2 0 8.4-.2 12.6-.7 3.5-.4 7-1.1 10.4-2.1 2.8-.8 5.5-2 8-3.5.1-.1.2-.1.3-.2l3.8-2.6h-81.4zm110 11.3-19.6 32.1h-23.8l32.3-52.5h4.8c6.2 0 16.5.6 20.9 5.4l17.4 18.4c2.1 2.3 4.2 4.5 6.4 6.7l1.1 1.1 13-21.1c5.2-8.6 18.4-10.3 27.6-10.5l2.6-.1-32.3 52.5h-4.6c-6.3 0-16.4-.6-20.9-5.5l-17-18.5zm156.1-11.3-20 32.6c-2.2 3.7-5.1 6.7-9.1 8.4-4.7 2.1-11 2.4-16.1 2.4h-5.5l26.7-43.5h-41.5l2-2.3c1.8-2.1 4.1-3.7 6.8-4.7 4.7-1.7 10.2-2.1 15.1-2.1h88.2l-2.2 2.4c-5.5 5.9-17.3 6.8-25 6.8zm117.6 21.8-13.3 21.7 2.6-.1c5.6-.2 11.2-1 16.5-2.8 4.5-1.5 8.9-3.9 11.4-8.1l19.6-32c.5-.7.8-1.5 1-2.4.1-.3.1-.7.1-1.1 0-.9-.3-1.7-.9-2.4-.8-.9-2-1.5-3.2-2-1.8-.7-3.7-1.1-5.5-1.4-2.5-.4-5.1-.5-7.6-.5h-1.5l-13.4 22h-57.3l13.4-22.1-2.6.1c-5.6.2-11.2 1.2-16.5 3.1-3.9 1.4-9 3.8-11.1 7.5l-19.8 32.3c-.3.6-.7 1.3-.9 2-.1.3-.1.6-.1.9 0 2.4 2.2 3.7 4.1 4.6 3.7 1.6 8.3 2 12.3 2h2.4l13.2-21.7h57.1zm76.1-21.8-8 12.7h57.7c4.6 0 9.6.4 13.9 1.9 2 .7 4.8 2 4.8 4.4v.2.4l-.1.2v.2c-.1.6-.4 1.2-.7 1.8l-6.7 10.8c-1.7 2.6-4.1 4.5-6.8 6-3.4 1.9-7.2 3-11 3.8-4.6.9-9.3 1.3-13.9 1.3h-56.9c-2.5 0-5-.1-7.4-.5-2-.3-4-.7-5.9-1.5-1.4-.5-2.7-1.3-3.8-2.3-.7-.7-1.2-1.5-1.2-2.5 0-.1 0-.2 0-.3 0-.2.1-.3.1-.5l.1-1.2h81.8l7.9-12.9h-59.5c-2 0-3.9-.1-5.9-.3-1.6-.2-3.3-.5-4.9-.9-1.2-.3-2.5-.8-3.6-1.4-.8-.4-1.5-1-2.1-1.7-.4-.6-.6-1.3-.6-2v-.9l.1-.1c0-.1 0-.2 0-.3v-.2-.1c.2-.7.5-1.3.8-1.9v-.1l5.7-9.1c2.7-4.5 7.1-7.3 12-9 6.1-2.2 12.6-3.1 19.1-3.1h58.3c2.7 0 5.4.1 8.1.4 2 .2 4 .6 5.9 1.3 1.2.5 2.5 1.1 3.5 2 .7.7 1 1.4 1 2.4v.6l-.1.1v.3.2.1c-.1.3-.2.6-.3.9l-.4.8z"/><use xlink:href="#r"/><path clip-path="url(#b)" d="m11.8 162.5h675.5v50h-675.5z"/><use xlink:href="#s"/><path clip-path="url(#c)" d="m26.1 177.4h647.6v35h-647.6z"/><path d="m742.6 46.4 10.2-10.7 10.4 9.1-9.3 10.8z"/><path d="m745.7 29 3.5 3.3 16.6 15.4 2.5 2.2 8.3-8.9c-4.5-10.8-11.7-17.8-22.1-20.6z"/><path d="m785.8 61.3c6 5.9 9.3 13.1 8.1 21.6l-.1.8-.8.3c-2.6 1.1-5.1 2.3-7.7 3.4l-1.4.6-9.6-22.8 10.8-4.7z"/><use xlink:href="#t"/><path clip-path="url(#d)" d="m778.3 64.2h13.5v20h-13.5z"/><use xlink:href="#u"/><path clip-path="url(#e)" d="m747.9 22.2h26.9v25.7h-26.9z"/><path d="m706.9 8.1c8.4-1.3 16 .4 22.2 6.5l.6.6-.2.8c-.6 2.7-1.2 5.5-1.8 8.2l-.3 1.5-24-5.9 2.6-11.5z"/><use xlink:href="#v"/><path clip-path="url(#f)" d="m706.9 10.1h19.5v11.9h-19.5z"/></g><path d="m602.7 110.7-7.5 12.2h-54.6l7.6-12.2zm-560.4 33.2h54.5l20.2-33.2h-54c-4.6 0-9.7-.1-14.2-1.2-1.6-.4-4.4-1.3-5-3-.1-.2-.1-.4-.1-.6v-1l.1-.2c.2-.6.5-1.2.9-1.8l.5-.8h78.6c2.4 0 4.9.1 7.3.5 1.8.3 3.6.6 5.3 1.3 1.1.4 2.2 1 3 1.9.6.6.9 1.4.9 2.2 0 .3 0 .7-.1 1-.2.8-.5 1.6-1 2.3l-18.7 30.5c-2.4 3.9-6.6 6.2-10.8 7.7-5.8 2-12 2.7-18.1 2.7h-77.2l17.9-28.9h22.8zm129.5-33.2h77.1l.4-.9c.1-.2.1-.4.2-.6.1-.3.1-.6.1-.9 0-.4-.1-.8-.2-1.2-.2-.4-.4-.8-.7-1.2s-.7-.7-1.2-1c-.5-.4-1.1-.6-1.8-.8-.8-.3-1.6-.6-2.4-.8-.9-.3-1.9-.5-2.8-.6-1.1-.2-2.2-.3-3.2-.3-1.3 0-2.6-.1-3.9-.1h-56.7c-6 0-11.9 1-17.5 3-3.9 1.4-8.6 3.7-10.9 7.3l-18.5 30.6c-.3.6-.6 1.1-.8 1.7v.1.1c-.1.3-.1.6-.1.9 0 1.3.7 2.2 1.7 3 1.5 1.2 3.6 1.9 5.5 2.4 2.8.7 5.8.9 8.7.9h56.6c4.1 0 8.2-.3 12.2-1 3.5-.7 6.9-1.8 10-3.5.7-.4 1.3-.7 1.9-1.2l3.8-2.6h-77.7l7.8-12.4h49.4c4 0 8-.2 12-.6 3.4-.4 6.7-1 9.9-2 2.6-.8 5.2-1.9 7.5-3.3l4-2.6h-77.7zm188.6.6c-1.9 3.5-7.1 5.3-10.7 6.3-4.9 1.7-10 2.6-15.2 2.8l-2.6.1 6.1-9.9h-54.5l-20.6 33.2h54.7l1.6-2.1v-.1c1.5-2.8 6.6-4.7 9.5-5.6 5-1.7 10.2-2.6 15.4-2.8l2.7-.1-5.4 8.5c-2.4 3.9-6.7 6.3-10.9 7.7-5.8 2-11.9 2.8-18 2.8h-56.7c-3.8 0-8.2-.4-11.7-1.9-1.8-.8-3.9-2.1-3.9-4.3 0-.3 0-.5.1-.8v-.1-.1c.2-.6.5-1.3.9-1.8l18.8-30.8c2-3.5 6.9-5.8 10.6-7.1 5.7-2.1 11.7-3 17.7-3h56.6c3.1 0 6.3.2 9.3.8 1.9.4 4.1 1 5.7 2.2 1 .7 1.7 1.6 1.7 2.9v.2.2c-.1.2-.1.4-.1.7v.1.1c-.4.6-.7 1.3-1.1 1.9zm34.8-2.2c.1-.3.1-.7.1-1 0-2.2-2.1-3.4-3.9-4.1-3.7-1.5-8.6-1.8-12.6-1.8h-1.6l-25 41c-.3.6-.6 1.2-.9 1.8v.1.1c-.1.3-.1.5-.1.8 0 2.2 2.1 3.5 3.9 4.3 3.5 1.6 7.9 1.9 11.7 1.9h2.2l25.1-40.9c.6-.7.9-1.4 1.1-2.2zm92.3 8.8-47.8 25-16.7-24.1-14 23c-2.5 3.9-6.6 6.2-10.9 7.6-5 1.7-10.2 2.5-15.5 2.7l-2.6.1 30.8-50.1h4.2c5.6 0 16.9.4 20.7 5.1l15.2 19.8 38.5-19.5c8.4-4.3 18.6-5.4 27.9-5.4h2.5l-30.8 50.1h-1.6c-4 0-8.6-.3-12.4-1.7-1.8-.7-4-1.9-4-4.1 0-.3 0-.7.1-1 .2-.8.6-1.6 1-2.3zm102.4 13.6-12.6 20.7h22.9l30.7-50.1h-77.7c-3 0-6.1.2-9.1.7-2.9.5-5.7 1.1-8.4 2-2.5.8-4.8 1.9-6.9 3.4-1.8 1.3-3.4 2.9-4.6 4.9l-23.9 39.1 2.7-.1c5.1-.3 10.2-1.1 15-2.8 2.5-.8 5.1-1.8 7.2-3.4 2-1.5 3.6-3.5 4.9-5.6l5.4-8.8zm49.6 12.4h53.8l-4 2.6c-.7.4-1.4.9-2.1 1.2-3.2 1.6-6.7 2.7-10.2 3.4-4 .8-8.1 1-12.2 1h-31.5c-4.1 0-8.8-.3-12.6-1.7-1.8-.7-4-1.9-4-4.1 0-.1 0-.2 0-.3v-.2l.1-.5c.2-.8.6-1.6 1-2.3l25-41h1.6c4 0 8.8.3 12.6 1.8 1.8.7 3.9 1.9 3.9 4.1 0 .3 0 .7-.1 1-.2.8-.5 1.5-1 2.2z" fill="#fff"/><use fill="#fff" xlink:href="#w"/><path clip-path="url(#g)" d="m16.9 103.5h671.6v47.3h-671.6z" fill="#fff"/><use fill="#fff" xlink:href="#x"/><path clip-path="url(#h)" d="m16.9 124.1h111.5v26.6h-111.5z" fill="#fff"/><use fill="#fff" xlink:href="#y"/><path clip-path="url(#i)" d="m129.9 127.4h94.3v23.4h-94.3z" fill="#fff"/><use fill="#fff" xlink:href="#z"/><path clip-path="url(#j)" d="m241.6 132.6h102.6v18.2h-102.6z" fill="#fff"/><use fill="#fff" xlink:href="#A"/><path clip-path="url(#k)" d="m352.7 128.9h27.8v21.9h-27.8z" fill="#fff"/><use fill="#fff" xlink:href="#B"/><path clip-path="url(#l)" d="m472.4 127.8h29.9v23h-29.9z" fill="#fff"/><use fill="#fff" xlink:href="#C"/><path clip-path="url(#m)" d="m433.8 130.8h26.2v10.4h-26.2z" fill="#fff"/><use fill="#fff" xlink:href="#D"/><path clip-path="url(#n)" d="m382.6 131.9h30.5v18.8h-30.5z" fill="#fff"/><use fill="#fff" xlink:href="#E"/><path clip-path="url(#o)" d="m502.8 124h112.6v26.8h-112.6z" fill="#fff"/><use fill="#fff" xlink:href="#F"/><path clip-path="url(#p)" d="m618 125.9h70.5v24.9h-70.5z" fill="#fff"/></svg>