<?xml version="1.0" encoding="utf-8"?>
<!-- Generator: Adobe Illustrator 26.5.0, SVG Export Plug-In . SVG Version: 6.00 Build 0)  -->
<svg version="1.1" id="Layer_1" xmlns="http://www.w3.org/2000/svg" xmlns:xlink="http://www.w3.org/1999/xlink" x="0px" y="0px"
	 viewBox="0 0 803.1 222.5" style="enable-background:new 0 0 803.1 222.5;" xml:space="preserve">
<style type="text/css">
	.st0{clip-path:url(#SVGID_00000005974065624261720410000000924724677018655394_);}
	.st1{clip-path:url(#SVGID_00000175307460917776529590000006536229777902621057_);}
	.st2{clip-path:url(#SVGID_00000164486240997268293780000011088449984166200724_);}
	.st3{clip-path:url(#SVGID_00000099627582954567239930000007552053558008142503_);}
	.st4{clip-path:url(#SVGID_00000007422906544081090720000001659032543410809239_);}
	.st5{clip-path:url(#SVGID_00000055692039818567369960000015935886512893830801_);}
	.st6{clip-path:url(#SVGID_00000096765153296147867670000013882509219411539113_);}
	.st7{clip-path:url(#SVGID_00000043421814578872647960000007134478391510343047_);}
	.st8{clip-path:url(#SVGID_00000127759571036925115420000015780710585779323270_);}
	.st9{clip-path:url(#SVGID_00000008831687322470893950000016314680267524333208_);}
	.st10{clip-path:url(#SVGID_00000050641722628691495520000009254617684573256067_);}
	.st11{clip-path:url(#SVGID_00000145034406791371445600000001172953844651524741_);}
	.st12{clip-path:url(#SVGID_00000180361211841242302420000008368352307098764477_);}
	.st13{clip-path:url(#SVGID_00000035519663999684952250000002918018903727057047_);}
	.st14{clip-path:url(#SVGID_00000139251523817988397920000000391752453671304878_);}
	.st15{clip-path:url(#SVGID_00000005956279429034899170000013072709378085743239_);}
</style>
<g>
	<path d="M722.3,78.3l-28,23.9c-4.3,3.7-3.9,0-8.5,3.2c-2.9,2-2.8,4-3.4,5.9c-0.3,1-1.4,1.3-2.2,2.1c-2.2,2.2-2.5,5.4-0.9,7.8
		c2.2,3.2,6.9,3.9,9.9,0.1c1.9-2.3,1.6-0.7,4.3-1.7c2.1-0.8,4.4-3.4,4.9-6.2c0.7-4-1-3,0.3-4.8C706.3,98.6,715.1,88.3,722.3,78.3
		 M693.2,113.9c-2.7,3.6-8-0.2-5.4-3.9C690.2,106.6,695.7,110.5,693.2,113.9z"/>
	<path d="M668.5,38.4l-16.2,5.3c-0.2,0.1-0.4,0.2-0.7,0.4c-3.3,1.8-6.8,3.4-9.9,5.6c-0.7,0.5-1.5,0.9-2.2,1.4l-2.8,2.2
		c-0.3,0.3-0.7,0.5-1.1,0.8c-0.6,0.4-1.1,0.9-1.6,1.4c-0.3,0.3-0.6,0.5-0.9,0.8l-0.8,0.7c0,0-0.1,0-0.1,0.1l-8,8.3v0.1l-3.9,4.9
		l-1.9-8.1l0.7-1.1c0.1-0.1,0.1-0.2,0.2-0.3l0.1-0.1l1.5-1.9l0.1-0.1c1.3-1.4,2.3-3,3.5-4.5c2.6-3.2,5.7-5.9,8.8-8.5
		c14.2-12.3,31.9-19.3,50.5-21.2c9.9-1,19.2,0.1,28.8,2.2c8.3,1.8,15.7,5.1,23.2,9c2.8,1.5,5.5,3.2,8.1,5l8.9-9.3l14.8,13.1
		l-8.4,9.7l0.2,0.2l0.1,0.1l5.7,6.9c8,9.7,15.8,28.7,17.5,41.2c0.4,2.8,0.8,5.5,1,8.3c0.4,5,0.4,10-0.1,15.1l-0.8,6.7
		c-1.1,6.9-3,13.5-5.3,20v0.1l-1.8,4.2c-0.8,2-1.7,3.8-2.7,5.8l-0.1,0.1l-3.5,6.2c-1.4,2.6-3.4,4.7-5,7.2l-0.1,0.1l-3.4,4.3
		c-0.1,0.2-0.2,0.3-0.3,0.5c-0.4,0.5-0.8,0.9-1.2,1.4l-4.2,4.2c-0.2,0.2-0.3,0.3-0.5,0.5l-0.6,0.6c-17.5,17.2-43.1,27.3-67.5,27.6
		c-4.2,0.1-8.4-0.1-12.5-0.6l-1.6-0.2l19.1-32.1c12.5,0.1,25.2-3.1,35.8-9.9c4-2.6,8-5.4,11.4-8.6l3.4-3.5
		c8.8-9.2,14.7-21.4,17.4-33.8c3.1-14.5,1.7-29.7-4-43.4c-2.7-6.4-5.9-11.7-9.9-17.4c-1.7-2.4-3.9-4.7-6-6.7c-1.1-1-2.1-2.2-3.2-3.2
		c-4.9-3.9-9.5-7.7-15.1-10.5C704.9,37.4,686.5,34.5,668.5,38.4"/>
	<path d="M668.1,36.9l-16.4,5.4c-0.3,0.1-0.5,0.3-0.8,0.4c-3.4,1.8-6.9,3.5-10.1,5.6c-0.7,0.5-1.5,0.9-2.2,1.4l-2.9,2.3
		c-0.3,0.3-0.7,0.5-1,0.8c-0.6,0.5-1.1,0.9-1.7,1.4c-0.3,0.3-0.6,0.5-0.9,0.8l-0.8,0.7l-0.1,0.1l-8.1,8.4l-0.1,0.1l-1.9,2.5l-1-4.4
		l0.4-0.5c0.1-0.1,0.1-0.2,0.2-0.2l1.4-1.8c1.3-1.5,2.3-3.1,3.5-4.6c2.5-3.1,5.6-5.8,8.6-8.3c14-12.1,31.3-19,49.7-20.8
		c9.8-1,18.8,0.1,28.4,2.1c8.3,1.8,15.4,4.9,22.8,8.9c3.2,1.7,6.1,3.6,9,5.7l8.8-9.2l12.6,11.1l-8.3,9.6c0.4,0.4,0.7,0.8,1.1,1.1
		l5.6,6.9c7.8,9.5,15.5,28.3,17.1,40.4c0.4,2.7,0.8,5.5,1,8.2c0.4,5,0.4,9.8-0.1,14.8l-0.8,6.6c-1.1,6.9-3,13.2-5.2,19.8v0.1
		l-1.8,4.2c-0.8,1.9-1.7,3.8-2.6,5.6v0.1l-3.5,6.2c-1.4,2.5-3.4,4.7-4.9,7.1v0.1l-3.3,4.3c-0.1,0.1-0.2,0.3-0.3,0.4
		c-0.4,0.5-0.7,0.8-1.1,1.2l-4.2,4.2c-0.2,0.2-0.3,0.3-0.5,0.5l-0.5,0.6c-17.2,17-42.4,26.8-66.5,27.2c-4,0.1-7.9-0.1-11.9-0.5
		l17.5-29.3c12.6,0,25.4-3.3,36-10.1c4.1-2.6,8.2-5.5,11.7-8.8l3.4-3.5c9-9.4,15.1-21.9,17.8-34.5c3.2-14.9,1.8-30.2-4.1-44.3
		c-2.8-6.8-5.9-11.8-10.1-17.7c-1.7-2.4-4.1-5-6.2-7c-1.2-1.1-2.1-2.3-3.3-3.2c-5.1-4.1-9.5-7.7-15.4-10.7
		C705.2,35.9,686.5,32.9,668.1,36.9"/>
	<path d="M676.8,212.2c3.2,0.3,6.4,0.4,9.6,0.3c23.7-0.3,48.6-10.1,65.4-26.7l0.5-0.5c0.2-0.2,0.3-0.4,0.5-0.5l4.2-4.2
		c0.4-0.4,0.5-0.6,1-1.1c0.1-0.1,0.2-0.3,0.3-0.4l3.3-4.3c1.8-2.9,3.6-4.6,4.9-7.1l3.6-6.3c0.9-1.9,1.8-3.7,2.5-5.5l1.8-4.1
		c2.3-6.6,4-12.6,5.1-19.6l0.8-6.6c0.4-4.8,0.5-9.3,0.1-14.5c-0.2-2.8-0.6-5.4-1-8.1c-1.6-11.8-9.2-30.5-16.8-39.7l-5.6-6.8
		c-6.8-7.1-13.9-13.4-22.7-18.1c-7.1-3.8-13.9-7-22.4-8.7c-9.1-1.9-17.9-3.1-27.9-2.1c-18.5,1.8-35.4,8.8-48.8,20.4
		c-2.7,2.3-6.1,5.2-8.4,8.1c-1.4,1.7-1.9,2.8-3.6,4.6l-1.4,1.7c0,0.1-0.1,0.1-0.1,0.2l0.2,0.8c0-0.1,0.1-0.1,0.2-0.2l8.2-8.5
		c0.1-0.1,0.1-0.1,0.2-0.2l0.8-0.7c0.4-0.4,0.5-0.5,0.9-0.8c0.5-0.5,1-0.9,1.7-1.4c0.3-0.2,0.6-0.4,1-0.8l2.9-2.3
		c0.9-0.6,1.6-1,2.2-1.4c3.1-2.2,6.9-4,10.2-5.7c0.4-0.2,0.5-0.3,1-0.5l16.5-5.4c18.7-4.1,37.9-1.1,54.8,7.5
		c6.3,3.2,10.1,6.4,15.6,10.8c1.5,1.2,2.1,2.1,3.4,3.3c2.1,1.9,4.8,4.8,6.4,7.2c4.1,5.8,7,10.2,10.2,18c12.9,30.9,2.8,62.9-14,80.4
		l-3.5,3.5c-3.5,3.4-7.9,6.4-11.9,9.1c-10.8,7-23.6,10.3-36.2,10.4L676.8,212.2z"/>
	<g>
		<path id="q" d="M729.3,60.4c-1.4-1.1-5.4-4.1-6.8-4.7c-0.1,0.1-4.4,6.4-4.6,6.8c0.5,0.5,4.8,4.5,5.4,4.9L729.3,60.4z M716.1,52.2
			c-1-1-6.3-3-7.5-3.1c-0.9,1.2-2.2,4.9-2.5,6.4c1.2,0.7,2.1,1,3.4,1.7c1.1,0.6,1.8,1.2,3,1.6L716.1,52.2z M701.3,46.9
			c-2.5,0-5.3-1-8-0.6l-0.5,5.4c1.5,0.8,5.7,1.6,7.2,1.8L701.3,46.9z M685.9,46l-7.5,1.1c-0.5,1.4,0,2.8,0.3,4.6
			c3.2-0.5,6,0.2,7.5-0.9L685.9,46z M664.9,54.4c2.1,0,4.8-1.4,7.4-1.8l-1-3.6c-1.6,0.1-6.4,1.9-7.5,2.8L664.9,54.4z M652.6,61
			c1.6-1.3,5-2.8,6-4c-0.6-1.2-0.3-0.8-1.1-1.9c-1.6,1.1-5.7,3.4-6.3,4.8c0.3,0.3,0.2,0.3,0.5,0.6C652.4,61.1,651.5,60.5,652.6,61
			L652.6,61z M641.1,70.5c0.9-0.2,2.4-1.8,3.1-2.6c0.8-0.9,0.6-0.7,1.6-1.6c1.3-1.1,1.1-0.6,0.6-1.8c-1.3,0.3-3.3,3.2-4.3,4.5
			L641.1,70.5z M727.5,71.6c0.5,1.6,1.1,2.1,2,3.3c0.4,0.5,0.6,0.9,1,1.5l1.1,1.4c0.9-0.3,7.7-4.9,8.4-5.9c-1.8-2.7-3.4-4.4-5.1-6.3
			C732.7,66.9,729.7,70.6,727.5,71.6z M736.7,90l10.8-3.9c0-0.1,0.2-0.1,0.3-0.2c-1.1-3.1-2.3-5-3.6-7.5c-2,1.1-7.8,4.3-9.9,4.9
			L736.7,90z M738.6,99.7c0.1,1.2,0.2,2.3,0.3,3.5l12.4-1.4l-0.5-6.6c-0.1-0.5-0.4-1.2-0.5-1.8l-11.8,2.7L738.6,99.7z M752,118.2
			c0.6-2.4,0.5-6.3,0.6-8.7l-13.8-0.4c-0.2,2.4-0.7,4.5-0.9,6.8C740.7,116.9,748.3,117.5,752,118.2L752,118.2z M733.6,127.9
			c0.1,0.1,0.2,0.1,0.2,0.2c0.1,0,0.2,0.1,0.2,0.2l14,5.8c0.9-1.5,2.2-5.9,2.6-8.3c-4.8-1-11.5-3.5-14.6-4L733.6,127.9z
			 M726.6,138.9c2.1,0.3,11.5,9.5,13.7,9.8c0.7-1.6,1.4-2.2,2.3-3.7c0.1-0.2,0.3-0.5,0.4-0.6l1.6-3c-2.2-1.3-4.9-2.8-7.1-4.1
			c-2.3-1.4-4.6-2.9-7-4.1C729.7,134.2,727.2,137.3,726.6,138.9L726.6,138.9z M717.3,146.7c0.9,1.8,10,12.2,11,14.5
			c1.3-0.6,4-3.3,5.3-4.6c0.8-0.8,0.7-0.5,1.3-1.4c-1.1-1.6-3.3-3.4-4.7-4.8l-7.9-7.6C720.9,144.2,718.3,145.7,717.3,146.7
			L717.3,146.7z M714.2,170.6c2.2-0.8,6.6-3.3,7.8-4.5l-9.6-16.4l-6.1,3L714.2,170.6z M694.6,155.3c0.4,3.1,2.8,18.9,3.7,20.7
			c2.3-0.4,6.9-1.5,8.6-2.3c-2.2-6.5-3.6-13.3-5.9-19.4L694.6,155.3z"/>
	</g>
	<g>
		<defs>
			<path id="SVGID_1_" d="M729.3,60.4c-1.4-1.1-5.4-4.1-6.8-4.7c-0.1,0.1-4.4,6.4-4.6,6.8c0.5,0.5,4.8,4.5,5.4,4.9L729.3,60.4z
				 M716.1,52.2c-1-1-6.3-3-7.5-3.1c-0.9,1.2-2.2,4.9-2.5,6.4c1.2,0.7,2.1,1,3.4,1.7c1.1,0.6,1.8,1.2,3,1.6L716.1,52.2z M701.3,46.9
				c-2.5,0-5.3-1-8-0.6l-0.5,5.4c1.5,0.8,5.7,1.6,7.2,1.8L701.3,46.9z M685.9,46l-7.5,1.1c-0.5,1.4,0,2.8,0.3,4.6
				c3.2-0.5,6,0.2,7.5-0.9L685.9,46z M664.9,54.4c2.1,0,4.8-1.4,7.4-1.8l-1-3.6c-1.6,0.1-6.4,1.9-7.5,2.8L664.9,54.4z M652.6,61
				c1.6-1.3,5-2.8,6-4c-0.6-1.2-0.3-0.8-1.1-1.9c-1.6,1.1-5.7,3.4-6.3,4.8c0.3,0.3,0.2,0.3,0.5,0.6C652.4,61.1,651.5,60.5,652.6,61
				L652.6,61z M641.1,70.5c0.9-0.2,2.4-1.8,3.1-2.6c0.8-0.9,0.6-0.7,1.6-1.6c1.3-1.1,1.1-0.6,0.6-1.8c-1.3,0.3-3.3,3.2-4.3,4.5
				L641.1,70.5z M727.5,71.6c0.5,1.6,1.1,2.1,2,3.3c0.4,0.5,0.6,0.9,1,1.5l1.1,1.4c0.9-0.3,7.7-4.9,8.4-5.9
				c-1.8-2.7-3.4-4.4-5.1-6.3C732.7,66.9,729.7,70.6,727.5,71.6z M736.7,90l10.8-3.9c0-0.1,0.2-0.1,0.3-0.2c-1.1-3.1-2.3-5-3.6-7.5
				c-2,1.1-7.8,4.3-9.9,4.9L736.7,90z M738.6,99.7c0.1,1.2,0.2,2.3,0.3,3.5l12.4-1.4l-0.5-6.6c-0.1-0.5-0.4-1.2-0.5-1.8l-11.8,2.7
				L738.6,99.7z M752,118.2c0.6-2.4,0.5-6.3,0.6-8.7l-13.8-0.4c-0.2,2.4-0.7,4.5-0.9,6.8C740.7,116.9,748.3,117.5,752,118.2
				L752,118.2z M733.6,127.9c0.1,0.1,0.2,0.1,0.2,0.2c0.1,0,0.2,0.1,0.2,0.2l14,5.8c0.9-1.5,2.2-5.9,2.6-8.3c-4.8-1-11.5-3.5-14.6-4
				L733.6,127.9z M726.6,138.9c2.1,0.3,11.5,9.5,13.7,9.8c0.7-1.6,1.4-2.2,2.3-3.7c0.1-0.2,0.3-0.5,0.4-0.6l1.6-3
				c-2.2-1.3-4.9-2.8-7.1-4.1c-2.3-1.4-4.6-2.9-7-4.1C729.7,134.2,727.2,137.3,726.6,138.9L726.6,138.9z M717.3,146.7
				c0.9,1.8,10,12.2,11,14.5c1.3-0.6,4-3.3,5.3-4.6c0.8-0.8,0.7-0.5,1.3-1.4c-1.1-1.6-3.3-3.4-4.7-4.8l-7.9-7.6
				C720.9,144.2,718.3,145.7,717.3,146.7L717.3,146.7z M714.2,170.6c2.2-0.8,6.6-3.3,7.8-4.5l-9.6-16.4l-6.1,3L714.2,170.6z
				 M694.6,155.3c0.4,3.1,2.8,18.9,3.7,20.7c2.3-0.4,6.9-1.5,8.6-2.3c-2.2-6.5-3.6-13.3-5.9-19.4L694.6,155.3z"/>
		</defs>
		<clipPath id="SVGID_00000050660839431086518460000004777461065211913373_">
			<use xlink:href="#SVGID_1_"  style="overflow:visible;"/>
		</clipPath>
		<path style="clip-path:url(#SVGID_00000050660839431086518460000004777461065211913373_);" d="M641.1,45.9h111.4v130H641.1V45.9z"
			/>
	</g>
	<path d="M122.6,159.8l-1.4,2.4c-3.8,6.2-13,9.3-27.5,9.3H74.9l-19.6,32c-2.5,4.2-5.8,7.2-9.7,8.9s-9.4,2.6-16.7,2.6h-7.7L48,171.5
		H6.9l1-1.7c2.2-3.7,5.3-6.2,9.2-7.7c4-1.5,9.1-2.2,15.5-2.2h90L122.6,159.8z M228.6,171.5c0.6-0.9,1-1.8,1.2-2.6
		c0.1-0.5,0.2-0.9,0.2-1.4c0-0.7-0.1-1.3-0.4-1.8c-0.2-0.5-0.5-1-0.9-1.6c-0.4-0.5-0.9-1-1.6-1.4c-0.6-0.4-1.3-0.7-2.1-1
		s-1.7-0.6-2.7-0.9s-2-0.5-3.2-0.7c-1.1-0.2-2.3-0.3-3.6-0.4c-1.3,0-2.6-0.1-4.1-0.1H152c-6.5,0-12.8,1.1-18.8,3.3s-10,4.9-12.1,8.2
		l-19.4,32.2c-0.4,0.8-0.8,1.6-1,2.2c-0.1,0.5-0.2,0.9-0.2,1.4c0,1.6,0.8,3,2.2,4.2c1.5,1.2,3.6,2.1,6.3,2.8
		c2.7,0.6,5.8,0.9,9.4,0.9h59.3c4.7,0,9.1-0.4,13.1-1.1s7.7-2,10.9-3.8c3.3-1.8,5.7-3.9,7.2-6.4h-80.8l6.5-10.3h51.1
		c4.6,0,8.8-0.2,12.7-0.7s7.5-1.2,10.6-2.2c3.2-1,6-2.2,8.3-3.7s4-3.2,5.1-5.1h-80.8l6.3-10.1h80.7L228.6,171.5z M342,159.8
		l-33.9,55h-5.3c-10.9,0-18.2-2-21.8-5.9l-17-18.6l-6.7-6.9l-19.1,31.3h-26.8l33.9-55h5.5c11,0,18.3,1.9,21.8,5.8L290,184
		c2.5,2.7,4.6,5,6.4,6.7l12.2-19.8c4.5-7.5,14.9-11.1,31.4-11.1H342z M461.5,159.8l-1.4,2.4c-3.8,6.2-13,9.3-27.5,9.3h-18.7
		l-19.6,32c-2.5,4.2-5.7,7.2-9.7,8.9c-3.9,1.7-9.4,2.6-16.7,2.6h-7.7l26.7-43.5h-41.1l1-1.7c2.2-3.7,5.3-6.2,9.2-7.7
		c4-1.5,9.1-2.2,15.5-2.2h90L461.5,159.8z M568.8,171.5c0.6-0.9,1-1.8,1.2-2.8c0.1-0.4,0.2-0.9,0.2-1.4c0-1.3-0.4-2.3-1.3-3.3
		c-0.9-0.9-2.1-1.7-3.6-2.3c-1.6-0.6-3.5-1.1-5.8-1.5s-5-0.5-7.8-0.5h-2.2l-13.4,22h-54.3l13.4-22h-2.8c-6.7,0-13,1.1-19,3.3
		s-9.9,4.9-11.8,8.1l-19.8,32.3c-0.4,0.8-0.8,1.6-1,2.2c-0.1,0.4-0.2,0.8-0.2,1.4c0,2.4,1.6,4.3,4.9,5.7s7.5,2.1,12.8,2.1h3.1
		l13.2-21.6h54L515.3,215h2.4c7.1,0,13.6-1,19.3-2.9c5.8-2,9.8-4.8,12.1-8.6L568.8,171.5z M688.4,171.5h-80.8l-6.4,10.1h55.4
		c5.8,0,10.6,0.6,14.3,2c3.7,1.3,5.6,3.2,5.6,5.6v0.6c0,0.2-0.1,0.4-0.2,0.6c-0.1,0.7-0.4,1.4-0.9,2.3l-6.7,10.8
		c-1.6,2.5-4,4.7-7.3,6.5s-7,3.1-11.4,3.9c-4.3,0.9-9,1.3-14.2,1.3h-56.9c-2.7,0-5.3-0.2-7.6-0.5c-2.4-0.4-4.4-0.9-6.2-1.6
		s-3.2-1.6-4.2-2.6s-1.6-2.2-1.6-3.4c0-0.2,0-0.5,0.1-0.7s0.1-0.4,0.1-0.7c0.2-0.7,0.6-1.4,1-2.1H642l6.3-10.3h-57.2
		c-2.2,0-4.2-0.1-6-0.4c-1.8-0.2-3.5-0.5-5.1-0.9c-1.5-0.4-2.8-0.9-3.9-1.6c-1.1-0.6-1.9-1.3-2.5-2.1s-0.9-1.7-0.9-2.8
		c0-0.2,0-0.4,0.1-0.7c0.1-0.2,0.1-0.5,0.1-0.7c0.2-0.8,0.6-1.7,1-2.6l5.7-9.1c2.5-4.2,6.7-7.4,12.6-9.5s12.4-3.2,19.5-3.2H670
		c3.1,0,5.8,0.1,8.2,0.4s4.5,0.8,6.2,1.4s3,1.4,4,2.3c0.9,0.9,1.4,2,1.4,3.3c0,0.2,0,0.4-0.1,0.7c-0.1,0.2-0.1,0.5-0.1,0.7
		C689.6,169.5,689.1,170.5,688.4,171.5L688.4,171.5z"/>
	<path d="M117.6,162.5h-85c-4.7,0-10.1,0.4-14.6,2.1c-2.5,0.9-4.5,2.3-6.2,4.3h40.9L26,212.4h3c4.8,0,11.1-0.4,15.6-2.3
		c3.7-1.6,6.4-4.5,8.4-7.9l20.4-33.3h20.2C100.5,168.8,112.3,168.2,117.6,162.5 M227,168.8h-80.7l-9.7,15.5H216
		c-0.1,0.1-0.2,0.1-0.3,0.2c-2.3,1.5-5,2.6-7.6,3.4c-3.3,1-6.7,1.7-10.2,2.1c-4.1,0.5-8.3,0.7-12.4,0.7h-52.6l-9.9,15.7h79.5
		c-0.7,0.5-1.5,1-2.3,1.4c-3.2,1.7-6.6,2.8-10.1,3.5c-4.1,0.8-8.4,1.1-12.6,1.1h-59.3c-2.9,0-5.9-0.2-8.8-0.9
		c-1.8-0.4-3.8-1.1-5.2-2.2c-0.7-0.6-1.2-1.2-1.2-2.1c0-0.2,0-0.4,0.1-0.6c0.2-0.6,0.5-1.1,0.8-1.6l19.4-32.1
		c2.2-3.5,7-5.7,10.7-7.1c5.8-2.1,11.8-3.1,17.9-3.1h59.5c1.4,0,2.7,0,4.1,0.1c1.1,0,2.2,0.2,3.3,0.3c0.9,0.1,1.9,0.3,2.8,0.6
		c0.8,0.2,1.6,0.5,2.4,0.8c0.5,0.2,1.1,0.4,1.6,0.7c0.3,0.2,0.6,0.4,0.9,0.8c0.2,0.3,0.4,0.6,0.6,0.9v0.1v0.1
		c0.1,0.2,0.1,0.5,0.1,0.6c0,0.2,0,0.5-0.1,0.7C227.2,168.4,227.1,168.6,227,168.8L227,168.8z M337.2,162.5
		c-9,0.2-21.6,1.9-26.4,9.8l-14,22.7l-2.4-2.4c-2.2-2.2-4.3-4.5-6.4-6.8l-17.4-18.4c-4.1-4.5-14.3-5-19.8-5h-4L216.2,212h20.5
		l20.1-33l9.1,9.4l17,18.6c4.2,4.5,14.2,5,19.9,5h3.8L337.2,162.5z M456.6,162.5h-85c-4.7,0-10.1,0.4-14.6,2.1
		c-2.5,0.9-4.5,2.3-6.2,4.3h40.9L365,212.3h3c4.8,0,11.1-0.4,15.6-2.3c3.7-1.6,6.4-4.5,8.4-7.9l20.4-33.3h20.2
		C439.5,168.8,451.3,168.2,456.6,162.5L456.6,162.5z M550.9,162.5h0.7c2.5,0,5,0.1,7.4,0.5c1.7,0.3,3.6,0.6,5.2,1.3
		c0.9,0.4,2,0.9,2.7,1.7c0.4,0.4,0.6,0.9,0.6,1.4c0,0.2,0,0.5-0.1,0.7c-0.2,0.7-0.5,1.4-0.9,2l-19.6,32c-2.3,3.8-6.6,6.1-10.7,7.5
		c-5.2,1.7-10.6,2.5-16.1,2.7l13.2-21.6H473l-13.2,21.6h-1.6c-3.8,0-8.2-0.4-11.7-1.9c-1.3-0.6-3.3-1.6-3.3-3.3c0-0.1,0-0.4,0-0.5
		c0.2-0.6,0.5-1.2,0.8-1.7l19.8-32.3c1.9-3.4,6.9-5.6,10.3-6.9c5.2-1.9,10.6-2.9,16.1-3.1l-13.4,22h60.6L550.9,162.5z M686.9,168.8
		c0.1-0.2,0.2-0.5,0.3-0.7c0-0.3,0.1-0.6,0.2-0.9c0-0.6-0.2-1-0.6-1.4c-0.8-0.8-2-1.3-3-1.7c-1.8-0.6-3.7-1-5.6-1.2
		c-2.6-0.3-5.3-0.4-7.9-0.4H612c-6.3,0-12.6,0.9-18.6,3c-4.5,1.6-8.7,4.2-11.2,8.4l-5.6,9c-0.3,0.6-0.5,1.2-0.7,1.8
		c0,0.3-0.1,0.6-0.1,0.9c0,0.4,0.1,0.8,0.4,1.2c0.4,0.6,1,1,1.6,1.3c1,0.6,2.2,1,3.3,1.3c1.5,0.4,3.1,0.7,4.7,0.9
		c1.9,0.2,3.8,0.3,5.7,0.3h62l-9.6,15.7h-81.4c0,0.2-0.1,0.5-0.1,0.7c0,0.6,0.3,1.1,0.8,1.5c0.9,0.9,2.1,1.5,3.3,2
		c1.8,0.7,3.7,1.1,5.6,1.4c2.4,0.3,4.8,0.5,7.2,0.5H636c4.6,0,9.2-0.3,13.6-1.2c3.7-0.7,7.3-1.9,10.6-3.7c2.5-1.3,4.8-3.1,6.3-5.5
		l6.7-10.8c0.2-0.4,0.5-0.9,0.5-1.3l0.1-0.5l0.1-0.1c0-0.1,0-0.1,0-0.2c0-1.6-2.6-2.7-3.8-3.1c-4.1-1.5-9.1-1.8-13.5-1.8h-60.2
		l9.7-15.5h80.8V168.8z"/>
	<path d="M74.2,170.2l-20,32.6c-2.2,3.7-5.1,6.7-9.1,8.4c-4.7,2.1-11,2.4-16.1,2.4h-5.5l26.7-43.5H8.8l2-2.3
		c1.8-2.1,4.1-3.7,6.8-4.7c4.7-1.7,10.2-2.1,15.1-2.1h88.2l-2.2,2.4c-5.5,5.9-17.3,6.8-25,6.8L74.2,170.2z M147.1,170.2h80.8
		l0.4-0.9c0.1-0.2,0.2-0.5,0.3-0.7c0.1-0.3,0.1-0.7,0.1-1c0-0.4-0.1-0.9-0.2-1.2c-0.2-0.5-0.5-0.9-0.8-1.2c-0.3-0.4-0.8-0.8-1.2-1.1
		c-0.6-0.4-1.2-0.6-1.9-0.9c-0.8-0.3-1.7-0.6-2.6-0.8c-1-0.3-2-0.5-3-0.7c-1.1-0.2-2.3-0.3-3.4-0.3c-1.4,0-2.7-0.1-4.1-0.1H152
		c-6.3,0-12.5,1-18.4,3.2c-4.1,1.5-9.1,3.9-11.4,7.7l-19.4,32.1c-0.3,0.6-0.6,1.2-0.9,1.8v0.1v0.1c-0.1,0.3-0.1,0.6-0.1,0.9
		c0,1.4,0.7,2.4,1.8,3.2c1.6,1.3,3.8,2,5.8,2.5c3,0.7,6.1,0.9,9.1,0.9h59.3c4.3,0,8.6-0.3,12.8-1.1c3.7-0.7,7.2-1.9,10.5-3.7
		c0.8-0.4,1.6-0.9,2.4-1.5l3.6-2.6h-81.3l8.1-12.9h51.8c4.2,0,8.4-0.2,12.6-0.7c3.5-0.4,7-1.1,10.4-2.1c2.8-0.8,5.5-2,8-3.5
		c0.1-0.1,0.2-0.1,0.3-0.2l3.8-2.6h-81.4L147.1,170.2z M257.1,181.5l-19.6,32.1h-23.8l32.3-52.5h4.8c6.2,0,16.5,0.6,20.9,5.4
		l17.4,18.4c2.1,2.3,4.2,4.5,6.4,6.7l1.1,1.1l13-21.1c5.2-8.6,18.4-10.3,27.6-10.5l2.6-0.1l-32.3,52.5h-4.6
		c-6.3,0-16.4-0.6-20.9-5.5l-17-18.5L257.1,181.5z M413.2,170.2l-20,32.6c-2.2,3.7-5.1,6.7-9.1,8.4c-4.7,2.1-11,2.4-16.1,2.4h-5.5
		l26.7-43.5h-41.5l2-2.3c1.8-2.1,4.1-3.7,6.8-4.7c4.7-1.7,10.2-2.1,15.1-2.1h88.2l-2.2,2.4c-5.5,5.9-17.3,6.8-25,6.8L413.2,170.2z
		 M530.8,192l-13.3,21.7l2.6-0.1c5.6-0.2,11.2-1,16.5-2.8c4.5-1.5,8.9-3.9,11.4-8.1l19.6-32c0.5-0.7,0.8-1.5,1-2.4
		c0.1-0.3,0.1-0.7,0.1-1.1c0-0.9-0.3-1.7-0.9-2.4c-0.8-0.9-2-1.5-3.2-2c-1.8-0.7-3.7-1.1-5.5-1.4c-2.5-0.4-5.1-0.5-7.6-0.5H550
		l-13.4,22h-57.3l13.4-22.1l-2.6,0.1c-5.6,0.2-11.2,1.2-16.5,3.1c-3.9,1.4-9,3.8-11.1,7.5l-19.8,32.3c-0.3,0.6-0.7,1.3-0.9,2
		c-0.1,0.3-0.1,0.6-0.1,0.9c0,2.4,2.2,3.7,4.1,4.6c3.7,1.6,8.3,2,12.3,2h2.4l13.2-21.7h57.1L530.8,192z M606.9,170.2l-8,12.7h57.7
		c4.6,0,9.6,0.4,13.9,1.9c2,0.7,4.8,2,4.8,4.4v0.2v0.4l-0.1,0.2v0.2c-0.1,0.6-0.4,1.2-0.7,1.8l-6.7,10.8c-1.7,2.6-4.1,4.5-6.8,6
		c-3.4,1.9-7.2,3-11,3.8c-4.6,0.9-9.3,1.3-13.9,1.3h-56.9c-2.5,0-5-0.1-7.4-0.5c-2-0.3-4-0.7-5.9-1.5c-1.4-0.5-2.7-1.3-3.8-2.3
		c-0.7-0.7-1.2-1.5-1.2-2.5c0-0.1,0-0.2,0-0.3c0-0.2,0.1-0.3,0.1-0.5l0.1-1.2h81.8l7.9-12.9h-59.5c-2,0-3.9-0.1-5.9-0.3
		c-1.6-0.2-3.3-0.5-4.9-0.9c-1.2-0.3-2.5-0.8-3.6-1.4c-0.8-0.4-1.5-1-2.1-1.7c-0.4-0.6-0.6-1.3-0.6-2V185l0.1-0.1c0-0.1,0-0.2,0-0.3
		v-0.2v-0.1c0.2-0.7,0.5-1.3,0.8-1.9v-0.1l5.7-9.1c2.7-4.5,7.1-7.3,12-9c6.1-2.2,12.6-3.1,19.1-3.1h58.3c2.7,0,5.4,0.1,8.1,0.4
		c2,0.2,4,0.6,5.9,1.3c1.2,0.5,2.5,1.1,3.5,2c0.7,0.7,1,1.4,1,2.4v0.6l-0.1,0.1v0.3v0.2v0.1c-0.1,0.3-0.2,0.6-0.3,0.9l-0.4,0.8
		L606.9,170.2z"/>
	<g>
		<path id="r" d="M117.6,162.5h-85c-4.7,0-10.1,0.4-14.6,2.1c-2.5,0.9-4.5,2.3-6.2,4.3h40.9L26,212.4h3c4.8,0,11.1-0.4,15.6-2.3
			c3.7-1.6,6.4-4.5,8.4-7.9l20.4-33.3h20.2C100.5,168.8,112.3,168.2,117.6,162.5 M227,168.8h-80.7l-9.7,15.5H216
			c-0.1,0.1-0.2,0.1-0.3,0.2c-2.3,1.5-5,2.6-7.6,3.4c-3.3,1-6.7,1.7-10.2,2.1c-4.1,0.5-8.3,0.7-12.4,0.7h-52.6l-9.9,15.7h79.5
			c-0.7,0.5-1.5,1-2.3,1.4c-3.2,1.7-6.6,2.8-10.1,3.5c-4.1,0.8-8.4,1.1-12.6,1.1h-59.3c-2.9,0-5.9-0.2-8.8-0.9
			c-1.8-0.4-3.8-1.1-5.2-2.2c-0.7-0.6-1.2-1.2-1.2-2.1c0-0.2,0-0.4,0.1-0.6c0.2-0.6,0.5-1.1,0.8-1.6l19.4-32.1
			c2.2-3.5,7-5.7,10.7-7.1c5.8-2.1,11.8-3.1,17.9-3.1h59.5c1.4,0,2.7,0,4.1,0.1c1.1,0,2.2,0.2,3.3,0.3c0.9,0.1,1.9,0.3,2.8,0.6
			c0.8,0.2,1.6,0.5,2.4,0.8c0.5,0.2,1.1,0.4,1.6,0.7c0.3,0.2,0.6,0.4,0.9,0.8c0.2,0.3,0.4,0.6,0.6,0.9v0.1v0.1
			c0.1,0.2,0.1,0.5,0.1,0.6c0,0.2,0,0.5-0.1,0.7C227.2,168.4,227.1,168.6,227,168.8L227,168.8z M337.2,162.5
			c-9,0.2-21.6,1.9-26.4,9.8l-14,22.7l-2.4-2.4c-2.2-2.2-4.3-4.5-6.4-6.8l-17.4-18.4c-4.1-4.5-14.3-5-19.8-5h-4L216.2,212h20.5
			l20.1-33l9.1,9.4l17,18.6c4.2,4.5,14.2,5,19.9,5h3.8L337.2,162.5z M456.6,162.5h-85c-4.7,0-10.1,0.4-14.6,2.1
			c-2.5,0.9-4.5,2.3-6.2,4.3h40.9L365,212.3h3c4.8,0,11.1-0.4,15.6-2.3c3.7-1.6,6.4-4.5,8.4-7.9l20.4-33.3h20.2
			C439.5,168.8,451.3,168.2,456.6,162.5L456.6,162.5z M550.9,162.5h0.7c2.5,0,5,0.1,7.4,0.5c1.7,0.3,3.6,0.6,5.2,1.3
			c0.9,0.4,2,0.9,2.7,1.7c0.4,0.4,0.6,0.9,0.6,1.4c0,0.2,0,0.5-0.1,0.7c-0.2,0.7-0.5,1.4-0.9,2l-19.6,32c-2.3,3.8-6.6,6.1-10.7,7.5
			c-5.2,1.7-10.6,2.5-16.1,2.7l13.2-21.6H473l-13.2,21.6h-1.6c-3.8,0-8.2-0.4-11.7-1.9c-1.3-0.6-3.3-1.6-3.3-3.3c0-0.1,0-0.4,0-0.5
			c0.2-0.6,0.5-1.2,0.8-1.7l19.8-32.3c1.9-3.4,6.9-5.6,10.3-6.9c5.2-1.9,10.6-2.9,16.1-3.1l-13.4,22h60.6L550.9,162.5z M686.9,168.8
			c0.1-0.2,0.2-0.5,0.3-0.7c0-0.3,0.1-0.6,0.2-0.9c0-0.6-0.2-1-0.6-1.4c-0.8-0.8-2-1.3-3-1.7c-1.8-0.6-3.7-1-5.6-1.2
			c-2.6-0.3-5.3-0.4-7.9-0.4H612c-6.3,0-12.6,0.9-18.6,3c-4.5,1.6-8.7,4.2-11.2,8.4l-5.6,9c-0.3,0.6-0.5,1.2-0.7,1.8
			c0,0.3-0.1,0.6-0.1,0.9c0,0.4,0.1,0.8,0.4,1.2c0.4,0.6,1,1,1.6,1.3c1,0.6,2.2,1,3.3,1.3c1.5,0.4,3.1,0.7,4.7,0.9
			c1.9,0.2,3.8,0.3,5.7,0.3h62l-9.6,15.7h-81.4c0,0.2-0.1,0.5-0.1,0.7c0,0.6,0.3,1.1,0.8,1.5c0.9,0.9,2.1,1.5,3.3,2
			c1.8,0.7,3.7,1.1,5.6,1.4c2.4,0.3,4.8,0.5,7.2,0.5H636c4.6,0,9.2-0.3,13.6-1.2c3.7-0.7,7.3-1.9,10.6-3.7c2.5-1.3,4.8-3.1,6.3-5.5
			l6.7-10.8c0.2-0.4,0.5-0.9,0.5-1.3l0.1-0.5l0.1-0.1c0-0.1,0-0.1,0-0.2c0-1.6-2.6-2.7-3.8-3.1c-4.1-1.5-9.1-1.8-13.5-1.8h-60.2
			l9.7-15.5h80.8V168.8z"/>
	</g>
	<g>
		<defs>
			<path id="SVGID_00000021823810290517275920000012029012017033135295_" d="M117.6,162.5h-85c-4.7,0-10.1,0.4-14.6,2.1
				c-2.5,0.9-4.5,2.3-6.2,4.3h40.9L26,212.4h3c4.8,0,11.1-0.4,15.6-2.3c3.7-1.6,6.4-4.5,8.4-7.9l20.4-33.3h20.2
				C100.5,168.8,112.3,168.2,117.6,162.5 M227,168.8h-80.7l-9.7,15.5H216c-0.1,0.1-0.2,0.1-0.3,0.2c-2.3,1.5-5,2.6-7.6,3.4
				c-3.3,1-6.7,1.7-10.2,2.1c-4.1,0.5-8.3,0.7-12.4,0.7h-52.6l-9.9,15.7h79.5c-0.7,0.5-1.5,1-2.3,1.4c-3.2,1.7-6.6,2.8-10.1,3.5
				c-4.1,0.8-8.4,1.1-12.6,1.1h-59.3c-2.9,0-5.9-0.2-8.8-0.9c-1.8-0.4-3.8-1.1-5.2-2.2c-0.7-0.6-1.2-1.2-1.2-2.1
				c0-0.2,0-0.4,0.1-0.6c0.2-0.6,0.5-1.1,0.8-1.6l19.4-32.1c2.2-3.5,7-5.7,10.7-7.1c5.8-2.1,11.8-3.1,17.9-3.1h59.5
				c1.4,0,2.7,0,4.1,0.1c1.1,0,2.2,0.2,3.3,0.3c0.9,0.1,1.9,0.3,2.8,0.6c0.8,0.2,1.6,0.5,2.4,0.8c0.5,0.2,1.1,0.4,1.6,0.7
				c0.3,0.2,0.6,0.4,0.9,0.8c0.2,0.3,0.4,0.6,0.6,0.9v0.1v0.1c0.1,0.2,0.1,0.5,0.1,0.6c0,0.2,0,0.5-0.1,0.7
				C227.2,168.4,227.1,168.6,227,168.8L227,168.8z M337.2,162.5c-9,0.2-21.6,1.9-26.4,9.8l-14,22.7l-2.4-2.4
				c-2.2-2.2-4.3-4.5-6.4-6.8l-17.4-18.4c-4.1-4.5-14.3-5-19.8-5h-4L216.2,212h20.5l20.1-33l9.1,9.4l17,18.6c4.2,4.5,14.2,5,19.9,5
				h3.8L337.2,162.5z M456.6,162.5h-85c-4.7,0-10.1,0.4-14.6,2.1c-2.5,0.9-4.5,2.3-6.2,4.3h40.9L365,212.3h3
				c4.8,0,11.1-0.4,15.6-2.3c3.7-1.6,6.4-4.5,8.4-7.9l20.4-33.3h20.2C439.5,168.8,451.3,168.2,456.6,162.5L456.6,162.5z
				 M550.9,162.5h0.7c2.5,0,5,0.1,7.4,0.5c1.7,0.3,3.6,0.6,5.2,1.3c0.9,0.4,2,0.9,2.7,1.7c0.4,0.4,0.6,0.9,0.6,1.4
				c0,0.2,0,0.5-0.1,0.7c-0.2,0.7-0.5,1.4-0.9,2l-19.6,32c-2.3,3.8-6.6,6.1-10.7,7.5c-5.2,1.7-10.6,2.5-16.1,2.7l13.2-21.6H473
				l-13.2,21.6h-1.6c-3.8,0-8.2-0.4-11.7-1.9c-1.3-0.6-3.3-1.6-3.3-3.3c0-0.1,0-0.4,0-0.5c0.2-0.6,0.5-1.2,0.8-1.7l19.8-32.3
				c1.9-3.4,6.9-5.6,10.3-6.9c5.2-1.9,10.6-2.9,16.1-3.1l-13.4,22h60.6L550.9,162.5z M686.9,168.8c0.1-0.2,0.2-0.5,0.3-0.7
				c0-0.3,0.1-0.6,0.2-0.9c0-0.6-0.2-1-0.6-1.4c-0.8-0.8-2-1.3-3-1.7c-1.8-0.6-3.7-1-5.6-1.2c-2.6-0.3-5.3-0.4-7.9-0.4H612
				c-6.3,0-12.6,0.9-18.6,3c-4.5,1.6-8.7,4.2-11.2,8.4l-5.6,9c-0.3,0.6-0.5,1.2-0.7,1.8c0,0.3-0.1,0.6-0.1,0.9
				c0,0.4,0.1,0.8,0.4,1.2c0.4,0.6,1,1,1.6,1.3c1,0.6,2.2,1,3.3,1.3c1.5,0.4,3.1,0.7,4.7,0.9c1.9,0.2,3.8,0.3,5.7,0.3h62l-9.6,15.7
				h-81.4c0,0.2-0.1,0.5-0.1,0.7c0,0.6,0.3,1.1,0.8,1.5c0.9,0.9,2.1,1.5,3.3,2c1.8,0.7,3.7,1.1,5.6,1.4c2.4,0.3,4.8,0.5,7.2,0.5H636
				c4.6,0,9.2-0.3,13.6-1.2c3.7-0.7,7.3-1.9,10.6-3.7c2.5-1.3,4.8-3.1,6.3-5.5l6.7-10.8c0.2-0.4,0.5-0.9,0.5-1.3l0.1-0.5l0.1-0.1
				c0-0.1,0-0.1,0-0.2c0-1.6-2.6-2.7-3.8-3.1c-4.1-1.5-9.1-1.8-13.5-1.8h-60.2l9.7-15.5h80.8V168.8z"/>
		</defs>
		<clipPath id="SVGID_00000070108510536354211760000007371358272544190860_">
			<use xlink:href="#SVGID_00000021823810290517275920000012029012017033135295_"  style="overflow:visible;"/>
		</clipPath>
		<path style="clip-path:url(#SVGID_00000070108510536354211760000007371358272544190860_);" d="M11.8,162.5h675.5v50H11.8
			L11.8,162.5z"/>
	</g>
	<g>
		<path id="s" d="M47.5,177.4l-21.4,34.9h3c4.8,0,11.1-0.4,15.6-2.3c3.7-1.6,6.4-4.5,8.4-7.9l14.3-23.4
			C60.6,178.1,54,177.7,47.5,177.4 M117.1,183l-13.2,21.8c-0.3,0.5-0.6,1.1-0.8,1.6c0,0.2-0.1,0.4-0.1,0.6c0,0.9,0.6,1.6,1.2,2.1
			c1.4,1.1,3.4,1.8,5.2,2.2c2.8,0.7,5.9,0.9,8.8,0.9h59.3c4.2,0,8.4-0.3,12.6-1.1c3.5-0.7,7-1.8,10.1-3.5c0.8-0.4,1.5-0.9,2.3-1.4
			H123l9.9-15.7h52.6c4.1,0,8.3-0.2,12.4-0.7c3.4-0.4,6.9-1.1,10.2-2.1c1.8-0.6,3.6-1.2,5.3-2.1c-6.4-0.7-15.1-1.2-24.9-1.5h-51.8
			l0.6-1C130,183.2,123.1,183.1,117.1,183z M231.2,187.8l-15,24.4h20.5l15.8-25.8C243.6,187,236.3,187.5,231.2,187.8L231.2,187.8z
			 M304.6,182.5l-7.7,12.5l-2.4-2.4c-2.2-2.2-4.3-4.5-6.4-6.8l-2-2.1c-8.2,0.6-15.9,1.2-23,1.7l3,3l17,18.6c4.2,4.5,14.2,5,19.9,5
			h3.8l19.1-31C318.7,181.5,311.6,182,304.6,182.5z M385.3,179.3l-20.2,33h3c4.8,0,11.1-0.4,15.6-2.3c3.7-1.6,6.4-4.5,8.4-7.9
			l13.5-22C399.5,179.6,392.7,179.4,385.3,179.3z M455.5,186.2l-11.4,18.6c-0.3,0.6-0.6,1.2-0.8,1.7v0.5c0,1.7,2,2.7,3.3,3.3
			c3.5,1.5,7.9,1.9,11.7,1.9h1.6l13.2-21.6h60.3l-13.2,21.6c5.5-0.2,10.9-1,16.1-2.7c4.1-1.4,8.3-3.6,10.7-7.5l8.5-13.9
			C538.7,189.5,489.5,188.4,455.5,186.2L455.5,186.2z M576.6,187.5c0.3,0.2,0.6,0.5,0.9,0.6c1,0.6,2.2,1,3.3,1.3
			c1.5,0.4,3.1,0.7,4.7,0.9c1.9,0.2,3.8,0.3,5.7,0.3h62l-9.6,15.7h-81.4c0,0.2-0.1,0.5-0.1,0.7c0,0.6,0.3,1.1,0.8,1.5
			c0.9,0.9,2.1,1.5,3.3,2c1.8,0.7,3.7,1.1,5.6,1.4c2.4,0.3,4.8,0.5,7.2,0.5h57c4.6,0,9.2-0.3,13.6-1.2c3.7-0.7,7.3-1.9,10.6-3.7
			c2.5-1.3,4.8-3.1,6.3-5.5l6.7-10.8c0.2-0.3,0.3-0.6,0.5-1C641.5,190.3,601.4,187.9,576.6,187.5z"/>
	</g>
	<g>
		<defs>
			<path id="SVGID_00000115472970831987679690000001068241684972651926_" d="M47.5,177.4l-21.4,34.9h3c4.8,0,11.1-0.4,15.6-2.3
				c3.7-1.6,6.4-4.5,8.4-7.9l14.3-23.4C60.6,178.1,54,177.7,47.5,177.4 M117.1,183l-13.2,21.8c-0.3,0.5-0.6,1.1-0.8,1.6
				c0,0.2-0.1,0.4-0.1,0.6c0,0.9,0.6,1.6,1.2,2.1c1.4,1.1,3.4,1.8,5.2,2.2c2.8,0.7,5.9,0.9,8.8,0.9h59.3c4.2,0,8.4-0.3,12.6-1.1
				c3.5-0.7,7-1.8,10.1-3.5c0.8-0.4,1.5-0.9,2.3-1.4H123l9.9-15.7h52.6c4.1,0,8.3-0.2,12.4-0.7c3.4-0.4,6.9-1.1,10.2-2.1
				c1.8-0.6,3.6-1.2,5.3-2.1c-6.4-0.7-15.1-1.2-24.9-1.5h-51.8l0.6-1C130,183.2,123.1,183.1,117.1,183z M231.2,187.8l-15,24.4h20.5
				l15.8-25.8C243.6,187,236.3,187.5,231.2,187.8L231.2,187.8z M304.6,182.5l-7.7,12.5l-2.4-2.4c-2.2-2.2-4.3-4.5-6.4-6.8l-2-2.1
				c-8.2,0.6-15.9,1.2-23,1.7l3,3l17,18.6c4.2,4.5,14.2,5,19.9,5h3.8l19.1-31C318.7,181.5,311.6,182,304.6,182.5z M385.3,179.3
				l-20.2,33h3c4.8,0,11.1-0.4,15.6-2.3c3.7-1.6,6.4-4.5,8.4-7.9l13.5-22C399.5,179.6,392.7,179.4,385.3,179.3z M455.5,186.2
				l-11.4,18.6c-0.3,0.6-0.6,1.2-0.8,1.7v0.5c0,1.7,2,2.7,3.3,3.3c3.5,1.5,7.9,1.9,11.7,1.9h1.6l13.2-21.6h60.3l-13.2,21.6
				c5.5-0.2,10.9-1,16.1-2.7c4.1-1.4,8.3-3.6,10.7-7.5l8.5-13.9C538.7,189.5,489.5,188.4,455.5,186.2L455.5,186.2z M576.6,187.5
				c0.3,0.2,0.6,0.5,0.9,0.6c1,0.6,2.2,1,3.3,1.3c1.5,0.4,3.1,0.7,4.7,0.9c1.9,0.2,3.8,0.3,5.7,0.3h62l-9.6,15.7h-81.4
				c0,0.2-0.1,0.5-0.1,0.7c0,0.6,0.3,1.1,0.8,1.5c0.9,0.9,2.1,1.5,3.3,2c1.8,0.7,3.7,1.1,5.6,1.4c2.4,0.3,4.8,0.5,7.2,0.5h57
				c4.6,0,9.2-0.3,13.6-1.2c3.7-0.7,7.3-1.9,10.6-3.7c2.5-1.3,4.8-3.1,6.3-5.5l6.7-10.8c0.2-0.3,0.3-0.6,0.5-1
				C641.5,190.3,601.4,187.9,576.6,187.5z"/>
		</defs>
		<use xlink:href="#SVGID_00000115472970831987679690000001068241684972651926_"  style="overflow:visible;"/>
		<clipPath id="SVGID_00000064314506993481433240000013320124904015176343_">
			<use xlink:href="#SVGID_00000115472970831987679690000001068241684972651926_"  style="overflow:visible;"/>
		</clipPath>
		<path style="clip-path:url(#SVGID_00000064314506993481433240000013320124904015176343_);" d="M26.1,177.4h647.6v35H26.1
			L26.1,177.4z"/>
	</g>
	<path d="M742.6,46.4l10.2-10.7l10.4,9.1l-9.3,10.8L742.6,46.4z"/>
	<path d="M745.7,29l3.5,3.3l16.6,15.4l2.5,2.2l8.3-8.9c-4.5-10.8-11.7-17.8-22.1-20.6L745.7,29z"/>
	<path d="M785.8,61.3c6,5.9,9.3,13.1,8.1,21.6l-0.1,0.8L793,84c-2.6,1.1-5.1,2.3-7.7,3.4l-1.4,0.6l-9.6-22.8l10.8-4.7L785.8,61.3z"
		/>
	<g>
		<path id="t" d="M784.5,64.2l-6.2,2.7l7.3,17.2c1.8-0.8,3.7-1.6,5.5-2.4C791.8,74.8,789.2,69.1,784.5,64.2"/>
	</g>
	<g>
		<defs>
			<path id="SVGID_00000016772785527249955240000000358338889621997970_" d="M784.5,64.2l-6.2,2.7l7.3,17.2c1.8-0.8,3.7-1.6,5.5-2.4
				C791.8,74.8,789.2,69.1,784.5,64.2"/>
		</defs>
		<clipPath id="SVGID_00000103267151753599955670000013483690511587322805_">
			<use xlink:href="#SVGID_00000016772785527249955240000000358338889621997970_"  style="overflow:visible;"/>
		</clipPath>
		<path style="clip-path:url(#SVGID_00000103267151753599955670000013483690511587322805_);" d="M778.3,64.2h13.5v20h-13.5V64.2z"/>
	</g>
	<g>
		<path id="u" d="M747.9,29l2.3,2.2l16.6,15.4l1.4,1.2l6.7-7.1c-4-9.1-10.2-15.8-19.9-18.6L747.9,29z"/>
	</g>
	<g>
		<defs>
			<path id="SVGID_00000124125908971396239780000017036896383059924645_" d="M747.9,29l2.3,2.2l16.6,15.4l1.4,1.2l6.7-7.1
				c-4-9.1-10.2-15.8-19.9-18.6L747.9,29z"/>
		</defs>
		<clipPath id="SVGID_00000126322783418537057010000017756022351057289126_">
			<use xlink:href="#SVGID_00000124125908971396239780000017036896383059924645_"  style="overflow:visible;"/>
		</clipPath>
		<path style="clip-path:url(#SVGID_00000126322783418537057010000017756022351057289126_);" d="M747.9,22.2h26.9v25.7h-26.9V22.2z"
			/>
	</g>
	<path d="M706.9,8.1c8.4-1.3,16,0.4,22.2,6.5l0.6,0.6l-0.2,0.8c-0.6,2.7-1.2,5.5-1.8,8.2l-0.3,1.5l-24-5.9L706,8.3L706.9,8.1z"/>
	<g>
		<path id="v" d="M708.4,10.9l-1.5,6.6l18.2,4.5c0.4-2,0.9-3.9,1.3-5.9C721.3,11.4,715.2,10.1,708.4,10.9"/>
	</g>
	<g>
		<defs>
			<path id="SVGID_00000018215560700821384740000013850496670262648479_" d="M708.4,10.9l-1.5,6.6l18.2,4.5c0.4-2,0.9-3.9,1.3-5.9
				C721.3,11.4,715.2,10.1,708.4,10.9"/>
		</defs>
		<clipPath id="SVGID_00000104688772431151859110000002634411156917516465_">
			<use xlink:href="#SVGID_00000018215560700821384740000013850496670262648479_"  style="overflow:visible;"/>
		</clipPath>
		<path style="clip-path:url(#SVGID_00000104688772431151859110000002634411156917516465_);" d="M706.9,10.1h19.5V22h-19.5V10.1z"/>
	</g>
</g>
<path d="M602.7,110.7l-7.5,12.2h-54.6l7.6-12.2H602.7z M42.3,143.9h54.5l20.2-33.2H63c-4.6,0-9.7-0.1-14.2-1.2c-1.6-0.4-4.4-1.3-5-3
	c-0.1-0.2-0.1-0.4-0.1-0.6v-1l0.1-0.2c0.2-0.6,0.5-1.2,0.9-1.8l0.5-0.8h78.6c2.4,0,4.9,0.1,7.3,0.5c1.8,0.3,3.6,0.6,5.3,1.3
	c1.1,0.4,2.2,1,3,1.9c0.6,0.6,0.9,1.4,0.9,2.2c0,0.3,0,0.7-0.1,1c-0.2,0.8-0.5,1.6-1,2.3l-18.7,30.5c-2.4,3.9-6.6,6.2-10.8,7.7
	c-5.8,2-12,2.7-18.1,2.7H14.4l17.9-28.9h22.8L42.3,143.9z M171.8,110.7h77.1l0.4-0.9c0.1-0.2,0.1-0.4,0.2-0.6
	c0.1-0.3,0.1-0.6,0.1-0.9c0-0.4-0.1-0.8-0.2-1.2c-0.2-0.4-0.4-0.8-0.7-1.2s-0.7-0.7-1.2-1c-0.5-0.4-1.1-0.6-1.8-0.8
	c-0.8-0.3-1.6-0.6-2.4-0.8c-0.9-0.3-1.9-0.5-2.8-0.6c-1.1-0.2-2.2-0.3-3.2-0.3c-1.3,0-2.6-0.1-3.9-0.1h-56.7c-6,0-11.9,1-17.5,3
	c-3.9,1.4-8.6,3.7-10.9,7.3l-18.5,30.6c-0.3,0.6-0.6,1.1-0.8,1.7v0.1v0.1c-0.1,0.3-0.1,0.6-0.1,0.9c0,1.3,0.7,2.2,1.7,3
	c1.5,1.2,3.6,1.9,5.5,2.4c2.8,0.7,5.8,0.9,8.7,0.9h56.6c4.1,0,8.2-0.3,12.2-1c3.5-0.7,6.9-1.8,10-3.5c0.7-0.4,1.3-0.7,1.9-1.2
	l3.8-2.6h-77.7l7.8-12.4h49.4c4,0,8-0.2,12-0.6c3.4-0.4,6.7-1,9.9-2c2.6-0.8,5.2-1.9,7.5-3.3l4-2.6h-77.7L171.8,110.7z M360.4,111.3
	c-1.9,3.5-7.1,5.3-10.7,6.3c-4.9,1.7-10,2.6-15.2,2.8l-2.6,0.1l6.1-9.9h-54.5l-20.6,33.2h54.7l1.6-2.1v-0.1c1.5-2.8,6.6-4.7,9.5-5.6
	c5-1.7,10.2-2.6,15.4-2.8l2.7-0.1l-5.4,8.5c-2.4,3.9-6.7,6.3-10.9,7.7c-5.8,2-11.9,2.8-18,2.8h-56.7c-3.8,0-8.2-0.4-11.7-1.9
	c-1.8-0.8-3.9-2.1-3.9-4.3c0-0.3,0-0.5,0.1-0.8V145v-0.1c0.2-0.6,0.5-1.3,0.9-1.8l18.8-30.8c2-3.5,6.9-5.8,10.6-7.1
	c5.7-2.1,11.7-3,17.7-3h56.6c3.1,0,6.3,0.2,9.3,0.8c1.9,0.4,4.1,1,5.7,2.2c1,0.7,1.7,1.6,1.7,2.9v0.2v0.2c-0.1,0.2-0.1,0.4-0.1,0.7
	v0.1v0.1C361.1,110,360.8,110.7,360.4,111.3L360.4,111.3z M395.2,109.1c0.1-0.3,0.1-0.7,0.1-1c0-2.2-2.1-3.4-3.9-4.1
	c-3.7-1.5-8.6-1.8-12.6-1.8h-1.6l-25,41c-0.3,0.6-0.6,1.2-0.9,1.8v0.1v0.1c-0.1,0.3-0.1,0.5-0.1,0.8c0,2.2,2.1,3.5,3.9,4.3
	c3.5,1.6,7.9,1.9,11.7,1.9h2.2l25.1-40.9C394.7,110.6,395,109.9,395.2,109.1L395.2,109.1z M487.5,117.9l-47.8,25L423,118.8l-14,23
	c-2.5,3.9-6.6,6.2-10.9,7.6c-5,1.7-10.2,2.5-15.5,2.7l-2.6,0.1l30.8-50.1h4.2c5.6,0,16.9,0.4,20.7,5.1l15.2,19.8l38.5-19.5
	c8.4-4.3,18.6-5.4,27.9-5.4h2.5L489,152.2h-1.6c-4,0-8.6-0.3-12.4-1.7c-1.8-0.7-4-1.9-4-4.1c0-0.3,0-0.7,0.1-1
	c0.2-0.8,0.6-1.6,1-2.3L487.5,117.9z M589.9,131.5l-12.6,20.7h22.9l30.7-50.1h-77.7c-3,0-6.1,0.2-9.1,0.7c-2.9,0.5-5.7,1.1-8.4,2
	c-2.5,0.8-4.8,1.9-6.9,3.4c-1.8,1.3-3.4,2.9-4.6,4.9l-23.9,39.1l2.7-0.1c5.1-0.3,10.2-1.1,15-2.8c2.5-0.8,5.1-1.8,7.2-3.4
	c2-1.5,3.6-3.5,4.9-5.6l5.4-8.8L589.9,131.5z M639.5,143.9h53.8l-4,2.6c-0.7,0.4-1.4,0.9-2.1,1.2c-3.2,1.6-6.7,2.7-10.2,3.4
	c-4,0.8-8.1,1-12.2,1h-31.5c-4.1,0-8.8-0.3-12.6-1.7c-1.8-0.7-4-1.9-4-4.1c0-0.1,0-0.2,0-0.3v-0.2l0.1-0.5c0.2-0.8,0.6-1.6,1-2.3
	l25-41h1.6c4,0,8.8,0.3,12.6,1.8c1.8,0.7,3.9,1.9,3.9,4.1c0,0.3,0,0.7-0.1,1c-0.2,0.8-0.5,1.5-1,2.2L639.5,143.9z"/>
<g>
	<path id="w" d="M46,103.5L46,103.5c-0.4,0.6-0.7,1.1-0.9,1.6v0.7v0.2c0.3,1,3.1,1.8,3.9,2c4.2,1.1,9.5,1.2,13.9,1.2h56.6l-22,36
		H39.8l12.8-20.7H33.1l-16.2,26.1h74.6c5.9,0,12-0.7,17.7-2.6c3.9-1.3,7.8-3.5,10.1-7.1l18.7-30.5c0.4-0.6,0.6-1.2,0.8-1.9
		c0.1-0.2,0.1-0.4,0.1-0.6c0-0.5-0.2-0.9-0.5-1.3c-0.7-0.7-1.6-1.2-2.5-1.6c-1.5-0.6-3.3-1-5-1.2c-2.3-0.3-4.7-0.4-7.1-0.4H46
		L46,103.5z M247.9,109.3H171l-9.4,15h75.5c-2.2,1.4-4.7,2.4-7.2,3.2c-3.2,1-6.4,1.6-9.7,2c-3.9,0.5-7.9,0.6-11.8,0.6h-50.2
		l-9.6,15.2h75.6c-0.6,0.4-1.2,0.8-1.8,1.1c-3,1.6-6.3,2.7-9.6,3.3c-3.9,0.7-8,1-12,1h-56.6c-2.8,0-5.6-0.2-8.3-0.8
		c-1.7-0.4-3.6-1-4.9-2.1c-0.6-0.5-1.1-1.1-1.1-1.9c0-0.2,0-0.4,0.1-0.6c0.2-0.5,0.5-1.1,0.7-1.5l18.5-30.6
		c2.1-3.3,6.6-5.4,10.2-6.7c5.5-2,11.2-2.9,17.1-2.9h56.7c1.3,0,2.6,0,3.9,0.1c1,0,2.1,0.1,3.1,0.3c0.9,0.1,1.8,0.3,2.7,0.6
		c0.8,0.2,1.6,0.5,2.3,0.7c0.5,0.2,1,0.4,1.5,0.7c0.3,0.2,0.6,0.4,0.8,0.7c0.2,0.2,0.4,0.5,0.5,0.8v0.1v0.1c0.1,0.1,0.1,0.4,0.1,0.6
		s0,0.4-0.1,0.6C248,109,248,109.1,247.9,109.3L247.9,109.3z M344.1,134.7c-5.1,0.2-10.2,1.1-15.1,2.7c-2.4,0.8-7.4,2.6-8.7,5
		l-0.1,0.2l-2.1,2.7h-57.9l22.3-36h57.8l-6,9.8c5-0.2,10-1.1,14.8-2.8h0.1h0.1c3.1-0.9,8.1-2.6,9.8-5.6v-0.1v-0.1
		c0.3-0.5,0.6-1,0.7-1.6c0-0.3,0.1-0.6,0.1-0.9c0-0.8-0.5-1.3-1.1-1.8c-1.4-1.1-3.5-1.6-5.2-2c-2.9-0.6-6.1-0.8-9.1-0.8h-56.6
		c-5.9,0-11.7,0.9-17.2,2.9c-3.3,1.2-8,3.3-9.8,6.5L242,143.6c-0.3,0.5-0.6,1.1-0.8,1.6v0.5c0,1.5,1.9,2.5,3.1,3
		c3.3,1.5,7.5,1.8,11.1,1.8h56.7c5.9,0,11.9-0.7,17.6-2.7c3.9-1.4,7.9-3.5,10.1-7.1v-0.1L344.1,134.7z M368.4,150.8H367
		c-3.6,0-7.8-0.3-11.1-1.8c-1.2-0.5-3.1-1.5-3.1-3c0-0.1,0-0.3,0-0.5c0.2-0.5,0.5-1.1,0.8-1.6l24.6-40.3h0.8c3.8,0,8.5,0.3,12,1.7
		c1.2,0.5,3,1.3,3,2.8c0,0.2,0,0.4-0.1,0.6v0.1c-0.1,0.6-0.4,1.2-0.8,1.8L368.4,150.8z M517.2,103.5c-9.1,0-19.1,1.1-27.3,5.3
		l-39.5,20l-15.9-20.7c-3.4-4.2-14.7-4.6-19.6-4.6h-3.4l-29,47.2c5.1-0.2,10.2-0.9,15.1-2.6c3.9-1.4,7.9-3.5,10.1-7.1l15.1-24.8
		l17.2,24.9l51.2-26.8l-18,29.6c-0.4,0.6-0.7,1.2-0.8,1.9c-0.1,0.2-0.1,0.4-0.1,0.6c0,1.5,2,2.3,3.1,2.8c3.6,1.3,8.1,1.6,11.9,1.6
		h0.8L517.2,103.5z M605.2,109.3h-57.7l-9.4,15h58L605.2,109.3z M628.4,103.5l-29,47.3h-19.6l12.6-20.7h-57.8l-5.8,9.5
		c-1.2,1.9-2.7,3.8-4.5,5.2c-2,1.5-4.5,2.5-6.8,3.2h-0.1c-4.7,1.6-9.7,2.5-14.7,2.7l22.6-36.8c1.1-1.8,2.6-3.3,4.3-4.5
		c2-1.4,4.2-2.5,6.5-3.2c2.7-0.9,5.5-1.5,8.3-2c2.9-0.5,5.9-0.7,8.8-0.7H628.4z M688.5,145.3h-51.6l21.6-34.8
		c0.3-0.5,0.6-1.1,0.8-1.8c0.1-0.2,0.1-0.4,0.1-0.6c0-1.5-1.8-2.4-3-2.8c-3.5-1.4-8.3-1.7-12-1.7h-0.8L619,144
		c-0.4,0.6-0.7,1.2-0.8,1.9l-0.1,0.4v0.3c0,1.5,2,2.3,3.1,2.8c3.6,1.4,8.3,1.6,12.1,1.6h31.5c4,0,8-0.3,12-1
		c3.4-0.6,6.7-1.7,9.9-3.3C687.2,146.1,687.9,145.7,688.5,145.3z"/>
</g>
<g>
	<defs>
		<path id="SVGID_00000001626649834372356000000001594689394077689993_" d="M46,103.5L46,103.5c-0.4,0.6-0.7,1.1-0.9,1.6v0.7v0.2
			c0.3,1,3.1,1.8,3.9,2c4.2,1.1,9.5,1.2,13.9,1.2h56.6l-22,36H39.8l12.8-20.7H33.1l-16.2,26.1h74.6c5.9,0,12-0.7,17.7-2.6
			c3.9-1.3,7.8-3.5,10.1-7.1l18.7-30.5c0.4-0.6,0.6-1.2,0.8-1.9c0.1-0.2,0.1-0.4,0.1-0.6c0-0.5-0.2-0.9-0.5-1.3
			c-0.7-0.7-1.6-1.2-2.5-1.6c-1.5-0.6-3.3-1-5-1.2c-2.3-0.3-4.7-0.4-7.1-0.4H46L46,103.5z M247.9,109.3H171l-9.4,15h75.5
			c-2.2,1.4-4.7,2.4-7.2,3.2c-3.2,1-6.4,1.6-9.7,2c-3.9,0.5-7.9,0.6-11.8,0.6h-50.2l-9.6,15.2h75.6c-0.6,0.4-1.2,0.8-1.8,1.1
			c-3,1.6-6.3,2.7-9.6,3.3c-3.9,0.7-8,1-12,1h-56.6c-2.8,0-5.6-0.2-8.3-0.8c-1.7-0.4-3.6-1-4.9-2.1c-0.6-0.5-1.1-1.1-1.1-1.9
			c0-0.2,0-0.4,0.1-0.6c0.2-0.5,0.5-1.1,0.7-1.5l18.5-30.6c2.1-3.3,6.6-5.4,10.2-6.7c5.5-2,11.2-2.9,17.1-2.9h56.7
			c1.3,0,2.6,0,3.9,0.1c1,0,2.1,0.1,3.1,0.3c0.9,0.1,1.8,0.3,2.7,0.6c0.8,0.2,1.6,0.5,2.3,0.7c0.5,0.2,1,0.4,1.5,0.7
			c0.3,0.2,0.6,0.4,0.8,0.7c0.2,0.2,0.4,0.5,0.5,0.8v0.1v0.1c0.1,0.1,0.1,0.4,0.1,0.6s0,0.4-0.1,0.6C248,109,248,109.1,247.9,109.3
			L247.9,109.3z M344.1,134.7c-5.1,0.2-10.2,1.1-15.1,2.7c-2.4,0.8-7.4,2.6-8.7,5l-0.1,0.2l-2.1,2.7h-57.9l22.3-36h57.8l-6,9.8
			c5-0.2,10-1.1,14.8-2.8h0.1h0.1c3.1-0.9,8.1-2.6,9.8-5.6v-0.1v-0.1c0.3-0.5,0.6-1,0.7-1.6c0-0.3,0.1-0.6,0.1-0.9
			c0-0.8-0.5-1.3-1.1-1.8c-1.4-1.1-3.5-1.6-5.2-2c-2.9-0.6-6.1-0.8-9.1-0.8h-56.6c-5.9,0-11.7,0.9-17.2,2.9c-3.3,1.2-8,3.3-9.8,6.5
			L242,143.6c-0.3,0.5-0.6,1.1-0.8,1.6v0.5c0,1.5,1.9,2.5,3.1,3c3.3,1.5,7.5,1.8,11.1,1.8h56.7c5.9,0,11.9-0.7,17.6-2.7
			c3.9-1.4,7.9-3.5,10.1-7.1v-0.1L344.1,134.7z M368.4,150.8H367c-3.6,0-7.8-0.3-11.1-1.8c-1.2-0.5-3.1-1.5-3.1-3c0-0.1,0-0.3,0-0.5
			c0.2-0.5,0.5-1.1,0.8-1.6l24.6-40.3h0.8c3.8,0,8.5,0.3,12,1.7c1.2,0.5,3,1.3,3,2.8c0,0.2,0,0.4-0.1,0.6v0.1
			c-0.1,0.6-0.4,1.2-0.8,1.8L368.4,150.8z M517.2,103.5c-9.1,0-19.1,1.1-27.3,5.3l-39.5,20l-15.9-20.7c-3.4-4.2-14.7-4.6-19.6-4.6
			h-3.4l-29,47.2c5.1-0.2,10.2-0.9,15.1-2.6c3.9-1.4,7.9-3.5,10.1-7.1l15.1-24.8l17.2,24.9l51.2-26.8l-18,29.6
			c-0.4,0.6-0.7,1.2-0.8,1.9c-0.1,0.2-0.1,0.4-0.1,0.6c0,1.5,2,2.3,3.1,2.8c3.6,1.3,8.1,1.6,11.9,1.6h0.8L517.2,103.5z M605.2,109.3
			h-57.7l-9.4,15h58L605.2,109.3z M628.4,103.5l-29,47.3h-19.6l12.6-20.7h-57.8l-5.8,9.5c-1.2,1.9-2.7,3.8-4.5,5.2
			c-2,1.5-4.5,2.5-6.8,3.2h-0.1c-4.7,1.6-9.7,2.5-14.7,2.7l22.6-36.8c1.1-1.8,2.6-3.3,4.3-4.5c2-1.4,4.2-2.5,6.5-3.2
			c2.7-0.9,5.5-1.5,8.3-2c2.9-0.5,5.9-0.7,8.8-0.7H628.4z M688.5,145.3h-51.6l21.6-34.8c0.3-0.5,0.6-1.1,0.8-1.8
			c0.1-0.2,0.1-0.4,0.1-0.6c0-1.5-1.8-2.4-3-2.8c-3.5-1.4-8.3-1.7-12-1.7h-0.8L619,144c-0.4,0.6-0.7,1.2-0.8,1.9l-0.1,0.4v0.3
			c0,1.5,2,2.3,3.1,2.8c3.6,1.4,8.3,1.6,12.1,1.6h31.5c4,0,8-0.3,12-1c3.4-0.6,6.7-1.7,9.9-3.3C687.2,146.1,687.9,145.7,688.5,145.3
			z"/>
	</defs>
	<clipPath id="SVGID_00000054241530892514087340000017275796338874475173_">
		<use xlink:href="#SVGID_00000001626649834372356000000001594689394077689993_"  style="overflow:visible;"/>
	</clipPath>
	<path style="clip-path:url(#SVGID_00000054241530892514087340000017275796338874475173_);" d="M16.9,103.5h671.6v47.3H16.9
		L16.9,103.5z"/>
</g>
<g>
	<path id="x" d="M110.5,124.1l-12.9,21.2H39.8l12.8-20.7H33.1l-16.2,26.1h74.6c5.9,0,12-0.7,17.7-2.6c3.9-1.3,7.8-3.5,10.1-7.1
		l9.3-15.1C122.4,125.3,116.4,124.7,110.5,124.1"/>
</g>
<g>
	<defs>
		<path id="SVGID_00000149365240223460209660000004616679409838048924_" d="M110.5,124.1l-12.9,21.2H39.8l12.8-20.7H33.1l-16.2,26.1
			h74.6c5.9,0,12-0.7,17.7-2.6c3.9-1.3,7.8-3.5,10.1-7.1l9.3-15.1C122.4,125.3,116.4,124.7,110.5,124.1"/>
	</defs>
	<clipPath id="SVGID_00000027572076005493094380000016906589437969383318_">
		<use xlink:href="#SVGID_00000149365240223460209660000004616679409838048924_"  style="overflow:visible;"/>
	</clipPath>
	<path style="clip-path:url(#SVGID_00000027572076005493094380000016906589437969383318_);" d="M16.9,124.1h111.5v26.6H16.9
		L16.9,124.1z"/>
</g>
<g>
	<path id="y" d="M140.6,127.4l-9.9,16.4c-0.3,0.5-0.5,1-0.7,1.5c0,0.2-0.1,0.4-0.1,0.6c0,0.8,0.5,1.4,1.1,1.9
		c1.3,1.1,3.3,1.7,4.9,2.1c2.7,0.6,5.6,0.8,8.3,0.8h56.6c4,0,8-0.3,12-1c3.4-0.6,6.6-1.7,9.6-3.3c0.6-0.3,1.2-0.7,1.8-1.1h-75.6
		l9.6-15.2h4.8C155.5,129.2,148.1,128.3,140.6,127.4"/>
</g>
<g>
	<defs>
		<path id="SVGID_00000050652949246790227170000015106412378497074826_" d="M140.6,127.4l-9.9,16.4c-0.3,0.5-0.5,1-0.7,1.5
			c0,0.2-0.1,0.4-0.1,0.6c0,0.8,0.5,1.4,1.1,1.9c1.3,1.1,3.3,1.7,4.9,2.1c2.7,0.6,5.6,0.8,8.3,0.8h56.6c4,0,8-0.3,12-1
			c3.4-0.6,6.6-1.7,9.6-3.3c0.6-0.3,1.2-0.7,1.8-1.1h-75.6l9.6-15.2h4.8C155.5,129.2,148.1,128.3,140.6,127.4"/>
	</defs>
	<clipPath id="SVGID_00000083809472182074969560000012501660642970418074_">
		<use xlink:href="#SVGID_00000050652949246790227170000015106412378497074826_"  style="overflow:visible;"/>
	</clipPath>
	<path style="clip-path:url(#SVGID_00000083809472182074969560000012501660642970418074_);" d="M129.9,127.4h94.3v23.4h-94.3V127.4z
		"/>
</g>
<g>
	<path id="z" d="M344.1,134.7c-5.1,0.2-10.2,1.1-15.1,2.7c-2.4,0.8-7.4,2.6-8.7,5l-0.1,0.2l-2.1,2.7h-57.9l7.9-12.7
		c-7.3,0.6-14.1,1.2-20,1.7l-5.8,9.5c-0.3,0.5-0.6,1.1-0.8,1.6v0.5c0,1.5,1.9,2.5,3.1,3c3.3,1.5,7.5,1.8,11.1,1.8h56.7
		c5.9,0,11.9-0.7,17.6-2.7c3.9-1.4,7.9-3.5,10.1-7.1v-0.1L344.1,134.7z"/>
</g>
<g>
	<defs>
		<path id="SVGID_00000130619620647499060890000006377771364237199034_" d="M344.1,134.7c-5.1,0.2-10.2,1.1-15.1,2.7
			c-2.4,0.8-7.4,2.6-8.7,5l-0.1,0.2l-2.1,2.7h-57.9l7.9-12.7c-7.3,0.6-14.1,1.2-20,1.7l-5.8,9.5c-0.3,0.5-0.6,1.1-0.8,1.6v0.5
			c0,1.5,1.9,2.5,3.1,3c3.3,1.5,7.5,1.8,11.1,1.8h56.7c5.9,0,11.9-0.7,17.6-2.7c3.9-1.4,7.9-3.5,10.1-7.1v-0.1L344.1,134.7z"/>
	</defs>
	<clipPath id="SVGID_00000003792474934976406680000013351536887372678801_">
		<use xlink:href="#SVGID_00000130619620647499060890000006377771364237199034_"  style="overflow:visible;"/>
	</clipPath>
	<path style="clip-path:url(#SVGID_00000003792474934976406680000013351536887372678801_);" d="M241.6,132.6h102.6v18.2H241.6V132.6
		z"/>
</g>
<g>
	<path id="A" d="M368.4,150.8l12.1-19.7c-6.1-0.5-12-1.2-17.9-2.1l-9.1,14.9c-0.3,0.5-0.6,1.1-0.8,1.6v0.5c0,1.5,1.9,2.5,3.1,3
		c3.3,1.5,7.5,1.8,11.1,1.8H368.4z"/>
</g>
<g>
	<defs>
		<path id="SVGID_00000177469802972321549740000017917468713678172042_" d="M368.4,150.8l12.1-19.7c-6.1-0.5-12-1.2-17.9-2.1
			l-9.1,14.9c-0.3,0.5-0.6,1.1-0.8,1.6v0.5c0,1.5,1.9,2.5,3.1,3c3.3,1.5,7.5,1.8,11.1,1.8H368.4z"/>
	</defs>
	<clipPath id="SVGID_00000182487968435220587980000007265427318581743771_">
		<use xlink:href="#SVGID_00000177469802972321549740000017917468713678172042_"  style="overflow:visible;"/>
	</clipPath>
	<path style="clip-path:url(#SVGID_00000182487968435220587980000007265427318581743771_);" d="M352.7,128.9h27.8v21.9h-27.8V128.9z
		"/>
</g>
<g>
	<path id="B" d="M482.2,129.3l-8.9,14.6c-0.4,0.6-0.7,1.2-0.8,1.9c-0.1,0.2-0.1,0.4-0.1,0.6c0,1.5,2,2.3,3.1,2.8
		c3.6,1.3,8.1,1.6,11.9,1.6h0.8l14.1-23C495.6,128.3,488.9,128.8,482.2,129.3"/>
</g>
<g>
	<defs>
		<path id="SVGID_00000093880978947694300770000016518036337776770476_" d="M482.2,129.3l-8.9,14.6c-0.4,0.6-0.7,1.2-0.8,1.9
			c-0.1,0.2-0.1,0.4-0.1,0.6c0,1.5,2,2.3,3.1,2.8c3.6,1.3,8.1,1.6,11.9,1.6h0.8l14.1-23C495.6,128.3,488.9,128.8,482.2,129.3"/>
	</defs>
	<clipPath id="SVGID_00000093170915756998502870000007566272758365810607_">
		<use xlink:href="#SVGID_00000093880978947694300770000016518036337776770476_"  style="overflow:visible;"/>
	</clipPath>
	<path style="clip-path:url(#SVGID_00000093170915756998502870000007566272758365810607_);" d="M472.4,127.8h29.9v23h-29.9V127.8z"
		/>
</g>
<g>
	<path id="C" d="M433.8,132l6.3,9.1l19.8-10.4C451.1,131.3,442.4,131.7,433.8,132"/>
</g>
<g>
	<defs>
		<path id="SVGID_00000016043882655709822820000007612607367966942344_" d="M433.8,132l6.3,9.1l19.8-10.4
			C451.1,131.3,442.4,131.7,433.8,132"/>
	</defs>
	<clipPath id="SVGID_00000072277422499800945410000000760799363256838587_">
		<use xlink:href="#SVGID_00000016043882655709822820000007612607367966942344_"  style="overflow:visible;"/>
	</clipPath>
	<path style="clip-path:url(#SVGID_00000072277422499800945410000000760799363256838587_);" d="M433.8,130.8H460v10.4h-26.2V130.8z"
		/>
</g>
<g>
	<path id="D" d="M394.1,131.9l-11.5,18.8c5.1-0.2,10.2-0.9,15.1-2.6c3.9-1.4,7.9-3.5,10.1-7.1l5.3-8.8
		C406.6,132.3,400.3,132.2,394.1,131.9"/>
</g>
<g>
	<defs>
		<path id="SVGID_00000028299416344564148200000014420005048762776209_" d="M394.1,131.9l-11.5,18.8c5.1-0.2,10.2-0.9,15.1-2.6
			c3.9-1.4,7.9-3.5,10.1-7.1l5.3-8.8C406.6,132.3,400.3,132.2,394.1,131.9"/>
	</defs>
	<clipPath id="SVGID_00000173871931913286070570000015989420281126712479_">
		<use xlink:href="#SVGID_00000028299416344564148200000014420005048762776209_"  style="overflow:visible;"/>
	</clipPath>
	<path style="clip-path:url(#SVGID_00000173871931913286070570000015989420281126712479_);" d="M382.6,131.9h30.5v18.8h-30.5V131.9z
		"/>
</g>
<g>
	<path id="E" d="M517.4,126.7l-14.7,23.9c5-0.3,9.9-1.1,14.7-2.7h0.1c2.3-0.7,4.8-1.7,6.8-3.2c1.8-1.4,3.3-3.2,4.5-5.2l5.8-9.5h57.8
		l-12.6,20.7h19.6l16-26.1c-6.3-0.4-12.7-0.6-19.2-0.7l-0.2,0.4h-35C546.5,124.9,532,125.7,517.4,126.7"/>
</g>
<g>
	<defs>
		<path id="SVGID_00000035498655739465543050000016515556372774307234_" d="M517.4,126.7l-14.7,23.9c5-0.3,9.9-1.1,14.7-2.7h0.1
			c2.3-0.7,4.8-1.7,6.8-3.2c1.8-1.4,3.3-3.2,4.5-5.2l5.8-9.5h57.8l-12.6,20.7h19.6l16-26.1c-6.3-0.4-12.7-0.6-19.2-0.7l-0.2,0.4h-35
			C546.5,124.9,532,125.7,517.4,126.7"/>
	</defs>
	<clipPath id="SVGID_00000031905370572969157150000004010452096324808637_">
		<use xlink:href="#SVGID_00000035498655739465543050000016515556372774307234_"  style="overflow:visible;"/>
	</clipPath>
	<path style="clip-path:url(#SVGID_00000031905370572969157150000004010452096324808637_);" d="M502.8,124h112.6v26.8H502.8
		L502.8,124z"/>
</g>
<g>
	<path id="F" d="M688.5,145.3h-51.6l10.7-17.2c-5.8-0.9-11.7-1.7-17.7-2.3l-11,18c-0.4,0.6-0.7,1.2-0.8,1.9l-0.1,0.4v0.3
		c0,1.5,2,2.3,3.1,2.8c3.6,1.4,8.3,1.6,12.1,1.6h31.5c4,0,8-0.3,12-1c3.4-0.6,6.7-1.7,9.9-3.3C687.2,146.1,687.9,145.7,688.5,145.3"
		/>
</g>
<g>
	<defs>
		<path id="SVGID_00000120523774691059759110000005359759826883819701_" d="M688.5,145.3h-51.6l10.7-17.2
			c-5.8-0.9-11.7-1.7-17.7-2.3l-11,18c-0.4,0.6-0.7,1.2-0.8,1.9l-0.1,0.4v0.3c0,1.5,2,2.3,3.1,2.8c3.6,1.4,8.3,1.6,12.1,1.6h31.5
			c4,0,8-0.3,12-1c3.4-0.6,6.7-1.7,9.9-3.3C687.2,146.1,687.9,145.7,688.5,145.3"/>
	</defs>
	<clipPath id="SVGID_00000176037495250610363230000006644138200345407382_">
		<use xlink:href="#SVGID_00000120523774691059759110000005359759826883819701_"  style="overflow:visible;"/>
	</clipPath>
	<path style="clip-path:url(#SVGID_00000176037495250610363230000006644138200345407382_);" d="M618,125.9h70.5v24.9H618V125.9z"/>
</g>
</svg>
