<svg enable-background="new 0 0 2500 2500" viewBox="0 0 2500 2500" xmlns="http://www.w3.org/2000/svg"><path clip-rule="evenodd" d="m676 969.3h-523.8s-123.8.9-115 144.8l638.8 128.2v-42.4l-562.3-75.6h562.3zm-638.5 560.2h523.5s123.7-.9 114.9-144.8l-638.4-128.2v1.7l467.1 116.3h-467.1zm2.7-311 635.8 142.6v-42.3l-559.6-88.2zm-1-54.8 636.7 138v-42.4l-560.4-84.2zm707.6-194.3h534.3v156.5h-534.3zm719.7 157.3 62.9-157.3h259.1l66.8 157.9zm413.5 57.7 146.1 346.3h-199.7l-97.2-188.9h-134.9l-97.1 188.9h-750.4v-345.4h534.3v156.5h-318.4v32.4h388.6l92.5-189.8zm48.9-215h534.4v156.5h-534.4zm199.7 215.9h156.5v345.4h-156.5z" fill="#fff" fill-rule="evenodd"/></svg>