<svg enable-background="new 0 0 2500 2500" viewBox="0 0 2500 2500" xmlns="http://www.w3.org/2000/svg"><g clip-rule="evenodd" fill="#fff" fill-rule="evenodd"><path d="m1243.6 1463.3-200.9 521.1-.8 16.2c66.4 18.7 136.2 28.1 208.6 28.1 68.1 0 133.7-8.5 196.7-24.7l-2.5-19.6z"/><path d="m471.4 1250.4c0 292.9 163.5 550 405.3 682l-361-940.8c-29 80.9-44.3 167.7-44.3 258.8z"/><path d="m1642.1 577-228.2 628.3h-321.9l-229-630.9c-84.3 48.5-158.4 112.4-219.7 188.2l325.2 843.7 119.2-308.2h312.5l119.2 308.2 328.7-854c-58-69.9-127.7-129.3-206-175.3z"/><path d="m1449.7 496.9c-63.9-17-131.1-25.5-199.2-25.5-65.8-.1-131.3 8.2-195 24.7l197.5 544.9z"/><path d="m1979.2 974.6-370.4 966.4c248.6-130.3 419.7-390.8 419.7-690.5.1-97.1-16.9-189.9-49.3-275.9z"/><path d="m1250.4 210.9c-572.1 0-1039.6 466.6-1039.6 1039.6 0 571.3 467.4 1038.7 1039.6 1038.7s1038.7-467.4 1038.7-1038.7c0-573.1-466.5-1039.6-1038.7-1039.6zm0 1945.4c-498.9 0-906.7-407-906.7-905.9 0-499.8 407.8-907.6 906.7-907.6s906.8 407.8 906.8 907.6c0 499-407.8 905.9-906.8 905.9z"/></g></svg>